<?xml version="1.0" encoding="utf-8"?>
<!-- Generator: Adobe Illustrator 24.2.3, SVG Export Plug-In . SVG Version: 6.00 Build 0)  -->
<svg version="1.1" id="Layer_1" xmlns="http://www.w3.org/2000/svg" xmlns:xlink="http://www.w3.org/1999/xlink" x="0px" y="0px"
	 viewBox="0 0 767 767" style="enable-background:new 0 0 767 767;" xml:space="preserve">
<g transform="translate(0.000000,767.000000) scale(0.100000,-0.100000)">
	<path d="M2875,6986c-78-36-122-131-103-221c20-93,120-158,213-138c38,8,41,7,69-27c62-77,179-262,245-390c105-204,186-420,235-630
		c28-118,51-258,44-265c-2-3-148-9-324-15c-1024-33-1690-137-1796-281c-64-87-104-283-139-674c-16-188-23-1066-10-1325
		c27-536,81-883,154-991c29-43,82-63,223-84c152-23,157-24,165-63c17-83,108-160,217-183c57-11,57-11,42-72c-46-193-180-866-175-884
		c8-33,57-54,139-60c66-5,74-4,101,20c21,18,98,161,259,484l229,460l521-5c461-4,833,3,1326,25l145,6l238-482
		c271-548,249-518,370-507c80,7,125,27,132,59c2,12-40,231-94,487s-97,466-96,468c2,2,72,7,156,13c90,5,177,16,208,26
		c71,22,128,77,137,132l6,40l67,6c291,27,446,53,489,81c92,60,138,401,157,1149c6,251-7,874-25,1162c-23,362-60,635-96,704
		c-18,36-44,53-120,79c-332,116-993,186-2027,216l-228,6l7,47c59,421,252,883,510,1222l43,56l38-10c103-27,222,70,223,181
		c0,65-50,146-112,178c-35,18-121,18-157,0c-42-22-89-81-101-127c-13-46-2-112,26-154c14-22,12-27-50-111c-251-340-442-812-501-1236
		l-6-48h-93h-94l-7,58c-3,31-18,109-31,172c-81,378-247,753-467,1053l-64,88l23,46c30,58,30,113,3,170c-32,66-78,97-153,100
		C2929,6999,2893,6995,2875,6986z M2994,6915c83-39,86-158,6-200c-57-30-116-9-145,50c-27,58-1,125,58,150
		C2954,6933,2956,6933,2994,6915z M4587,6919c94-35,110-151,29-200c-58-35-127-14-153,48c-25,62-3,115,62,151
		C4550,6932,4553,6932,4587,6919z M4385,5220c874-30,1513-105,1788-210c69-26,70-29,97-184c58-340,93-1261,71-1861
		c-17-452-40-686-82-828c-24-83-33-88-194-111c-204-29-453-46-955-68c-399-17-2226-17-2590,0c-640,30-944,65-989,113
		c-58,63-113,417-142,914c-15,259-15,957,0,1195c23,373,63,649,109,754c19,42,28,50,84,76c212,96,708,168,1378,200
		C3391,5231,3960,5235,4385,5220z M2026,1850c12-30,20-57,18-59s-20,7-41,19c-38,22-62,48-75,83c-7,16-3,18,34,15
		C2003,1905,2005,1903,2026,1850z M2122,1834l25-64h-29c-26,0-32,6-54,55c-31,72-31,83,4,77C2093,1899,2100,1889,2122,1834z
		 M2212,1888c8-7,22-33,31-58c8-25,18-52,21-60c5-13-2-15-39-12c-49,4-51,6-84,91l-21,51h38C2179,1900,2203,1894,2212,1888z
		 M5501,1814c9-11,6-14-20-14c-17,0-34-1-38-2c-8-1-62,71-63,84c0,4,17,8,38,10c33,3,39,0,54-31C5482,1843,5494,1822,5501,1814z
		 M5630,1887c0-18-20-41-52-61c-26-17-27-17-52,21c-14,21-26,41-26,45c0,5,29,8,65,8C5612,1900,5630,1896,5630,1887z M2370,1828
		c14-35,27-67,29-71c1-4-20-7-49-5l-52,3l-28,68l-29,67h52h52L2370,1828z M2469,1874c2-2,15-34,27-70l23-65l-42,3c-40,3-43,6-74,63
		c-44,81-43,86,15,78C2444,1880,2467,1876,2469,1874z M5368,1848c29-55,28-58-11-58c-28,0-38,7-65,45c-18,25-32,48-32,50
		c0,3,19,5,43,5C5342,1890,5346,1887,5368,1848z M2610,1809c17-38,30-73,27-76s-24-2-45,2c-37,6-42,10-66,66c-14,33-26,65-26,70
		s17,9,39,9C2577,1880,2577,1879,2610,1809z M2684,1874c47-7,48-8,81-75l33-69h-58h-58l-36,64C2595,1886,2595,1886,2684,1874z
		 M5122,1831l27-49l-42-5c-45-6-49-3-108,76l-20,27h58h58L5122,1831z M5254,1836c14-25,26-47,26-50s-20-6-44-6c-46,0-61,12-95,78
		c-11,21-10,22,38,22S5229,1879,5254,1836z M2900,1808c13-35,25-69,27-75c6-14-73-18-93-5c-6,4-27,37-46,75l-36,67h63h62L2900,1808z
		 M2986,1853c6-10,25-44,43-75l32-58h-49c-39,0-51,4-55,18c-3,9-16,43-31,75l-26,57h38C2963,1870,2979,1864,2986,1853z M3126,1857
		c5-6,64-127,64-132c0-3-21-5-47-5l-48,1l-42,68c-24,38-43,72-43,76C3010,1871,3121,1863,3126,1857z M4601,1833c12-21,29-48,37-60
		c14-23,14-23-34-23s-50,1-87,54c-40,59-41,59,30,64C4573,1870,4581,1865,4601,1833z M4743,1817c16-26,28-49,26-51s-22-6-44-9
		c-37-6-42-4-61,26c-11,18-29,45-39,60l-18,28l53-3C4712,1865,4714,1864,4743,1817z M4864,1821c14-27,22-51,19-55c-4-3-21-6-38-6
		c-28,0-37,7-69,55l-36,55h50C4839,1870,4840,1870,4864,1821z M4988,1825c18-25,32-48,32-50c0-3-20-5-45-5c-41,0-46,3-75,44
		c-16,25-30,47-30,50s19,6,43,6C4953,1870,4959,1866,4988,1825z M3283,1790l37-70h-44c-48,0-49,1-95,83l-32,57h48h48L3283,1790z
		 M3390,1797c19-34,37-65,38-69c2-5-14-8-36-8c-37,0-41,3-77,63c-21,34-40,65-42,70c-2,4,15,7,39,7C3354,1860,3356,1859,3390,1797z
		 M3512,1788l36-68h-38c-36,0-40,3-79,65c-23,35-41,67-41,70c0,4,19,5,42,3C3473,1855,3476,1853,3512,1788z M3624,1812
		c17-26,36-57,44-69c14-23,14-23-34-23h-49l-37,65c-21,35-38,66-38,69s19,6,43,6C3592,1860,3597,1857,3624,1812z M3737,1848
		c5-7,24-39,42-70l32-58h-48l-48,1l-48,69l-48,70h54C3705,1860,3732,1855,3737,1848z M3896,1803c51-80,51-79,1-82c-44-2-44-1-86,62
		c-22,35-41,66-41,70s20,7,45,7C3858,1860,3860,1858,3896,1803z M4031,1793l28-63h-39c-34,0-42,5-75,51c-56,79-56,81,5,77l53-3
		L4031,1793z M4127,1808c60-81,60-78,11-77c-43,0-43,0-76,65l-32,64h29C4082,1860,4095,1850,4127,1808z M4259,1800
		c44-66,47-60-23-64c-7-1-31,22-53,49c-60,77-60,75-9,75C4218,1860,4220,1859,4259,1800z M4377,1800l32-60h-34c-30,0-39,7-75,55
		c-22,30-40,57-40,60s19,5,43,5C4344,1860,4346,1858,4377,1800z M4482,1806c28-43,32-56,21-60c-40-16-58-5-95,54l-37,60h37
		C4443,1860,4449,1855,4482,1806z M5125,1678c3-13,48-221,99-463c90-429,92-440,72-448c-11-4-38-7-61-5l-40,3l-227,455
		c-226,453-227,455-200,458c15,1,90,6,167,11c77,4,150,9,162,10C5113,1700,5121,1693,5125,1678z M2443,1664c70-4,127-11,127-16
		c0-4-99-207-221-449l-220-441l-55,4c-30,3-56,7-58,9c-3,2,33,182,79,399c45,217,88,421,95,454l12,58l56-6
		C2290,1673,2372,1667,2443,1664z"/>
	<path d="M3000,4989c-631-14-1071-50-1167-96c-58-27-90-118-117-333c-29-231-40-468-40-915c0-577,25-978,75-1209
		c32-153,57-175,219-200c524-82,2404-86,2865-5c87,15,119,27,144,53c62,66,89,357,98,1061c9,772-25,1392-84,1513c-14,28-28,41-65,54
		c-107,39-401,64-913,78C3622,5001,3502,5000,3000,4989z M4360,4900c337-19,528-44,558-73c91-91,114-1950,30-2402c-6-33-15-68-20-77
		c-11-24-60-35-218-53c-234-26-469-36-995-42c-688-8-1342,13-1670,53c-164,20-187,29-203,80c-91,308-120,1518-51,2144
		c14,128,46,265,67,283c24,22,83,34,252,51c198,20,491,37,830,46C3279,4920,4114,4914,4360,4900z"/>
	<path d="M4750,4821c0-4,18-21,40-36c21-15,58-51,81-81c39-51,59-66,59-45c0,24-70,110-114,139C4767,4831,4750,4837,4750,4821z"/>
	<path d="M3320,4303c0-8,653-707,698-747c40-35,36-6-4,37c-240,252-664,695-677,706C3327,4306,3320,4308,3320,4303z"/>
	<path d="M2906,4269c11-13,83-96,160-184c76-88,283-321,459-519c176-197,333-374,348-392c16-19,36-34,44-34c20,0-3,28-278,335
		c-568,635-725,808-743,814C2890,4291,2894,4282,2906,4269z"/>
	<path d="M2680,4024c0-7,90-112,494-579c377-436,480-549,484-536c5,16-134,179-847,988C2705,4017,2680,4041,2680,4024z"/>
	<path d="M1895,2553c2-28,13-69,24-91c22-43,77-96,111-107c33-10,34,0,3,20c-73,46-106,93-129,180l-13,50L1895,2553z"/>
	<path d="M5710,4901c-6-12-6-22-1-26c6-3,15,3,21,14c6,12,6,22,1,26C5725,4918,5716,4912,5710,4901z"/>
	<path d="M5470,4897c0-18,28-42,37-33c9,8-9,38-25,44C5475,4910,5470,4905,5470,4897z"/>
	<path d="M5562,4827c-43-13-82-51-82-78c0-12-16-40-36-62c-60-66-79-119-79-222c0-77,4-98,26-145c49-103,155-182,264-197
		c27-3,56-12,63-20c45-44,212,17,212,78c0,12,14,37,31,57c83,94,107,235,60,355c-41,106-153,194-271,212c-25,4-54,14-65,21
		C5663,4842,5610,4843,5562,4827z M5667,4693c35-77,143-371,167-451l15-53l-25-9c-54-21-60-16-108,99c-53,126-129,333-148,404
		c-12,45-11,50,7,63C5616,4776,5635,4764,5667,4693z M5840,4687c90-53,145-173,125-269c-8-35-54-133-60-126c-2,1-24,62-50,133
		c-26,72-62,167-80,213c-33,81-33,82-11,82C5776,4720,5810,4705,5840,4687z M5544,4503c19-54,53-143,75-197c22-55,39-101,37-104
		c-3-2-26,6-53,18c-142,62-202,221-137,360C5496,4645,5495,4646,5544,4503z"/>
	<path d="M5590,4712c0-22,169-444,183-459c19-18,0,43-64,209C5625,4678,5590,4751,5590,4712z"/>
	<path d="M5887,4833c-4-3-7-15-7-25c0-26,24-17,28,10C5911,4839,5900,4847,5887,4833z"/>
	<path d="M5355,4741c-3-6,3-15,14-21c12-6,22-6,26-1c3,6-3,15-14,21C5369,4746,5359,4746,5355,4741z"/>
	<path d="M6044,4696c-19-14-19-15,0-22c20-8,47,5,54,24C6103,4715,6068,4713,6044,4696z"/>
	<path d="M1454,4000c3-327,6-700,6-827c0-167,3-233,11-233c16,0,2,1630-13,1645C1451,4592,1449,4410,1454,4000z"/>
	<path d="M5296,4553c-3-3,2-12,12-19c20-16,32-17,32-4C5340,4542,5305,4561,5296,4553z"/>
	<path d="M5574,4000c-163-65-240-243-168-388c70-142,253-207,394-141c152,72,211,239,137,385C5871,3987,5705,4052,5574,4000z
		 M5652,3890c-5-63,3-87,22-71c9,8,12,26,8,61c-6,65,10,72,86,34c72-37,113-92,120-163c9-101-55-194-153-221c-131-37-275,67-275,197
		c0,59,22,113,62,150c22,21,103,62,123,63C5651,3940,5654,3919,5652,3890z"/>
	<path d="M5491,3771c-30-55,5-145,77-195c55-39,140-47,192-18c44,24,85,99,76,137c-10,38-30,25-37-23c-7-51-31-79-81-94
		c-99-29-221,70-202,166C5523,3783,5506,3800,5491,3771z"/>
	<path d="M5390,3981c0-13,26-32,33-24c8,7-11,33-24,33C5394,3990,5390,3986,5390,3981z"/>
	<path d="M5972,3958c-7-7-12-20-12-31c0-30,34-16,38,16C6002,3972,5992,3978,5972,3958z"/>
	<path d="M6002,3848c-16-16-15-38,1-38c17,0,37,20,37,37C6040,3863,6018,3864,6002,3848z"/>
	<path d="M5300,3831c0-11,26-22,34-14c3,3,3,10,0,14C5327,3843,5300,3842,5300,3831z"/>
	<path d="M5305,3336c-37-16-83-68-91-102c-11-45,2-112,30-148c31-42,101-71,148-62c149,28,189,208,66,299
		C5424,3348,5345,3355,5305,3336z M5418,3254c35-24,44-59,27-100c-34-83-155-59-155,31C5290,3254,5363,3293,5418,3254z"/>
	<path d="M5913,3330c-47-24-67-49-82-106c-23-86,43-186,133-199c57-9,124,19,157,66c32,46,34,144,3,185
		C6071,3347,5989,3368,5913,3330z M6045,3245c59-58,5-158-75-140c-66,15-88,97-36,141C5970,3277,6014,3277,6045,3245z"/>
	<path d="M5510,2899c-102-3-198-7-214-8c-23-1-27-4-19-12c13-13,670-5,738,9l40,8l-64,7C5920,2911,5786,2910,5510,2899z"/>
	<path d="M5560,2820c-102-4-206-8-232-9c-28,0-48-6-48-12c0-15,700-6,745,9c29,10,29,10-15,11c-25,1-94,3-155,5
		C5795,2826,5662,2824,5560,2820z"/>
	<path d="M5545,2739c-164-6-263-13-270-20c-15-16,751-7,767,9c9,9-7,12-69,12c-44,0-100,2-124,4S5688,2744,5545,2739z"/>
	<path d="M5385,2653c-55-2-104-8-109-13c-7-7,91-10,270-10c307,0,504,8,504,22C6050,2659,5613,2660,5385,2653z"/>
	<path d="M5403,2571c-226-11-138-21,179-21c324,0,468,7,468,21C6050,2581,5607,2580,5403,2571z"/>
	<path d="M5423,2491c-78-3-145-9-149-13c-4-5,49-8,117-8c507-2,659,3,659,21C6050,2501,5660,2500,5423,2491z"/>
	<path d="M5443,2411c-89-4-165-9-168-13c-16-16,110-21,374-14c156,4,312,10,345,13l61,7l-40,7C5970,2420,5685,2419,5443,2411z"/>
	<path d="M5490,2330c-91-4-178-8-193-9c-18-1-26-5-21-12c8-13,655-5,734,9l45,8l-64,7C5919,2341,5735,2340,5490,2330z"/>
</g>
</svg>
