<?xml version="1.0" encoding="utf-8"?>
<svg width="512px" height="512px" viewBox="0 0 512 512" version="1.1" xmlns:xlink="http://www.w3.org/1999/xlink" xmlns="http://www.w3.org/2000/svg">
  <defs>
    <path d="M0 0L512 0L512 512L0 512L0 0Z" id="path_1" />
    <path d="M61.5664 55.4604L84.7434 78.6804C86.1932 80.3967 86.0773 82.9399 84.4774 84.5173C82.8775 86.0946 80.333 86.1744 78.6374 84.7004L55.5034 61.5664C41.1585 72.7098 20.6217 70.7796 8.60436 57.1584C-3.41296 43.5372 -2.76871 22.9199 10.0756 10.0756C22.9199 -2.76871 43.5372 -3.41296 57.1584 8.60436C70.7796 20.6217 72.7098 41.1585 61.5664 55.5034L61.5664 55.4604ZM34.3904 60.1904C48.6394 60.1904 60.1904 48.6394 60.1904 34.3904C60.1904 20.1415 48.6394 8.59042 34.3904 8.59042C20.1415 8.59042 8.59042 20.1415 8.59042 34.3904C8.59042 48.6394 20.1415 60.1904 34.3904 60.1904Z" id="path_2" />
    <rect width="512" height="512" id="artboard_1" />
    <clipPath id="clip_1">
      <use xlink:href="#artboard_1" clip-rule="evenodd" />
    </clipPath>
    <clipPath id="mask_1">
      <use xlink:href="#path_1" />
    </clipPath>
    <clipPath id="mask_2">
      <use xlink:href="#path_2" />
    </clipPath>
  </defs>
  <g id="Artboard" clip-path="url(#clip_1)">
    <g id="doodle-television" artboard="c1f42ee0-8e1c-4667-9862-f11743e85c58">
      <path d="M0 0L512 0L512 512L0 512L0 0Z" id="Background" fill="#FFFFFF" fill-opacity="0" fill-rule="evenodd" stroke="none" />
      <path d="M191.917 45.6595C186.71 48.0626 183.773 54.4042 185.041 60.412C186.376 66.6201 193.051 70.9591 199.259 69.624C201.796 69.09 201.996 69.1567 203.865 71.4264C208.004 76.5664 215.814 88.9158 220.22 97.4603C227.229 111.078 232.636 125.497 235.907 139.515C237.776 147.392 239.312 156.737 238.844 157.205C238.711 157.405 228.965 157.805 217.216 158.206C148.861 160.409 104.403 167.351 97.3267 176.964C93.0545 182.771 90.3844 195.855 88.048 221.956C86.9799 234.505 86.5126 293.115 87.3805 310.404C89.1828 346.184 92.7875 369.348 97.6605 376.557C99.5964 379.427 103.134 380.763 112.547 382.164C122.693 383.7 123.027 383.766 123.561 386.37C124.696 391.91 130.77 397.05 138.046 398.586C141.851 399.32 141.851 399.32 140.85 403.392C137.779 416.275 128.834 461.201 129.168 462.402C129.702 464.605 132.973 466.007 138.447 466.407C142.853 466.741 143.387 466.674 145.189 465.072C146.591 463.871 151.731 454.325 162.478 432.764L177.765 402.057L212.543 402.391C243.317 402.658 268.149 402.19 301.059 400.722L310.738 400.321L326.625 432.497C344.716 469.077 343.247 467.075 351.324 466.341C356.664 465.873 359.668 464.538 360.136 462.402C360.269 461.601 357.465 446.982 353.861 429.893C350.256 412.804 347.386 398.786 347.452 398.652C347.586 398.519 352.259 398.185 357.866 397.785C363.874 397.451 369.681 396.717 371.751 396.049C376.49 394.58 380.295 390.909 380.896 387.238L381.297 384.567L385.769 384.167C405.194 382.365 415.541 380.629 418.411 378.76C424.553 374.755 427.624 351.992 428.892 302.06C429.292 285.305 428.425 243.717 427.223 224.492C425.688 200.328 423.218 182.104 420.815 177.498C419.613 175.095 417.877 173.96 412.804 172.224C390.642 164.481 346.518 159.808 277.495 157.805L262.275 157.405L262.742 154.268C266.681 126.164 279.564 95.3242 296.786 72.6947L299.657 68.9565L302.194 69.624C309.069 71.4264 317.013 64.9513 317.08 57.5416C317.08 53.2027 313.742 47.7956 309.603 45.6595C307.267 44.4579 301.526 44.4579 299.123 45.6595C296.319 47.1281 293.182 51.0665 292.381 54.1372C291.513 57.2079 292.247 61.6136 294.116 64.4173C295.051 65.8858 294.917 66.2196 290.779 71.8269C274.023 94.5231 261.274 126.031 257.335 154.334L256.935 157.538L250.726 157.538L244.452 157.538L243.984 153.667C243.784 151.597 242.783 146.391 241.915 142.185C236.508 116.952 225.427 91.9197 210.741 71.8937L206.469 66.0193L208.004 62.9487C210.007 59.077 210.007 55.4055 208.204 51.6006C206.068 47.1948 202.998 45.1254 197.991 44.9252C195.521 44.7917 193.118 45.0587 191.917 45.6595L191.917 45.6595ZM199.86 50.399C205.401 53.0024 205.601 60.9461 200.261 63.7497C196.456 65.7523 192.517 64.3505 190.582 60.412C188.779 56.5404 190.515 52.0679 194.453 50.399C197.19 49.1975 197.324 49.1975 199.86 50.399L199.86 50.399ZM306.199 50.132C312.474 52.4684 313.542 60.2118 308.135 63.4827C304.263 65.8191 299.657 64.4173 297.921 60.2785C296.253 56.1398 297.721 52.6019 302.06 50.1988C303.729 49.2642 303.929 49.2642 306.199 50.132L306.199 50.132ZM292.714 163.546C351.057 165.549 393.713 170.555 412.07 177.565C416.676 179.3 416.743 179.5 418.545 189.847C422.417 212.543 424.753 274.023 423.285 314.076C422.15 344.248 420.614 359.869 417.811 369.348C416.209 374.888 415.608 375.222 404.861 376.757C391.243 378.693 374.621 379.828 341.111 381.297C314.476 382.431 192.517 382.431 168.219 381.297C125.497 379.294 105.204 376.958 102.2 373.753C98.328 369.548 94.6566 345.917 92.7207 312.741C91.7194 295.451 91.7194 248.857 92.7207 232.97C94.2561 208.071 96.9262 189.647 99.9969 182.638C101.265 179.834 101.866 179.3 105.604 177.565C119.756 171.156 152.866 166.35 197.591 164.214C226.361 162.812 264.344 162.545 292.714 163.546L292.714 163.546ZM135.243 388.506C136.044 390.509 136.578 392.311 136.444 392.444C136.311 392.578 135.109 391.977 133.707 391.176C131.171 389.707 129.569 387.972 128.701 385.635C128.234 384.567 128.501 384.434 130.971 384.634C133.707 384.834 133.841 384.968 135.243 388.506L135.243 388.506ZM141.651 389.574L143.32 393.846L141.384 393.846C139.648 393.846 139.248 393.446 137.779 390.175C135.71 385.368 135.71 384.634 138.046 385.035C139.715 385.235 140.183 385.902 141.651 389.574L141.651 389.574ZM147.659 385.969C148.193 386.437 149.128 388.172 149.728 389.841C150.262 391.51 150.93 393.312 151.13 393.846C151.464 394.714 150.997 394.848 148.527 394.647C145.256 394.38 145.122 394.247 142.919 388.573L141.518 385.168L144.054 385.168C145.456 385.168 147.058 385.569 147.659 385.969L147.659 385.969ZM367.212 390.909C367.812 391.643 367.612 391.844 365.876 391.844C364.742 391.844 363.607 391.91 363.34 391.977C362.806 392.044 359.201 387.238 359.134 386.37C359.134 386.103 360.269 385.836 361.671 385.702C363.874 385.502 364.274 385.702 365.276 387.772C365.943 388.973 366.744 390.375 367.212 390.909L367.212 390.909ZM375.823 386.036C375.823 387.238 374.488 388.773 372.351 390.108C370.616 391.243 370.549 391.243 368.88 388.706C367.946 387.304 367.145 385.969 367.145 385.702C367.145 385.368 369.081 385.168 371.484 385.168C374.621 385.168 375.823 385.435 375.823 386.036L375.823 386.036ZM158.206 389.974C159.141 392.311 160.008 394.447 160.142 394.714C160.209 394.981 158.807 395.181 156.871 395.048L153.4 394.848L151.531 390.308L149.595 385.836L153.066 385.836L156.537 385.836L158.206 389.974L158.206 389.974ZM164.815 386.904C164.948 387.037 165.816 389.173 166.617 391.577L168.152 395.916L165.349 395.715C162.679 395.515 162.478 395.315 160.409 391.51C157.472 386.103 157.538 385.769 161.41 386.303C163.146 386.503 164.681 386.77 164.815 386.904L164.815 386.904ZM358.333 388.639C360.269 392.311 360.202 392.511 357.599 392.511C355.73 392.511 355.062 392.044 353.26 389.507C352.058 387.838 351.124 386.303 351.124 386.17C351.124 385.969 352.392 385.836 353.994 385.836C356.598 385.836 356.865 386.036 358.333 388.639L358.333 388.639ZM174.227 391.243C175.362 393.779 176.229 396.116 176.029 396.316C175.829 396.516 174.427 396.45 173.025 396.183C170.555 395.782 170.222 395.515 168.62 391.777C167.685 389.574 166.884 387.438 166.884 387.104C166.884 386.77 168.019 386.503 169.487 386.503C172.024 386.503 172.024 386.57 174.227 391.243L174.227 391.243ZM179.167 386.904C182.304 387.371 182.371 387.438 184.574 391.91L186.777 396.516L182.905 396.516L179.033 396.516L176.63 392.244C173.226 386.103 173.226 386.103 179.167 386.904L179.167 386.904ZM341.912 389.774L343.714 393.045L340.911 393.379C337.907 393.779 337.64 393.579 333.701 388.306L332.366 386.503L336.238 386.503L340.109 386.503L341.912 389.774L341.912 389.774ZM350.723 389.44C351.658 391.109 352.459 392.578 352.459 392.778C352.459 392.978 351.124 393.179 349.522 393.179C346.451 393.179 345.45 392.378 343.18 387.972C342.446 386.57 342.513 386.503 345.717 386.503C348.921 386.503 349.055 386.57 350.723 389.44L350.723 389.44ZM193.585 391.31C194.453 393.646 195.254 395.916 195.388 396.316C195.788 397.251 190.515 397.518 189.18 396.65C188.779 396.383 187.377 394.18 186.109 391.643L183.706 387.171L187.911 387.171L192.05 387.171L193.585 391.31L193.585 391.31ZM199.326 388.306C199.727 388.973 200.995 391.243 202.197 393.312L204.333 397.184L201.062 397.184C198.458 397.184 197.657 396.917 197.39 395.982C197.19 395.382 196.322 393.112 195.321 390.976L193.585 387.171L196.122 387.171C197.791 387.171 198.859 387.571 199.326 388.306L199.326 388.306ZM208.672 388.039C209.006 388.439 212.944 396.516 212.944 396.85C212.944 397.05 211.542 397.184 209.807 397.184L206.602 397.117L203.799 392.578C202.197 390.041 200.928 387.772 200.928 387.505C200.928 387.104 208.338 387.638 208.672 388.039L208.672 388.039ZM307.133 389.641C307.934 391.043 309.069 392.845 309.603 393.646C310.538 395.181 310.538 395.181 307.333 395.181C304.129 395.181 303.996 395.115 301.526 391.577C298.856 387.638 298.789 387.638 303.529 387.304C305.264 387.171 305.798 387.505 307.133 389.641L307.133 389.641ZM316.612 390.709C317.68 392.444 318.481 393.98 318.348 394.113C318.214 394.247 316.879 394.514 315.411 394.714C312.941 395.115 312.607 394.981 311.339 392.978C310.604 391.777 309.403 389.974 308.735 388.973L307.534 387.104L311.072 387.304C314.543 387.505 314.676 387.571 316.612 390.709L316.612 390.709ZM324.689 390.442C325.624 392.244 326.158 393.846 325.958 394.113C325.691 394.313 324.556 394.514 323.421 394.514C321.552 394.514 320.951 394.046 318.815 390.842L316.412 387.171L319.75 387.171C323.021 387.171 323.087 387.171 324.689 390.442L324.689 390.442ZM332.967 390.175C334.169 391.844 335.103 393.379 335.103 393.512C335.103 393.713 333.768 393.846 332.099 393.846C329.362 393.846 329.028 393.646 327.093 390.909C326.025 389.24 325.09 387.772 325.09 387.571C325.09 387.371 326.358 387.171 327.96 387.171C330.631 387.171 331.031 387.438 332.967 390.175L332.967 390.175ZM219.152 392.511L221.622 397.184L218.685 397.184C215.481 397.184 215.414 397.117 212.343 391.643L210.207 387.838L213.411 387.838L216.615 387.838L219.152 392.511L219.152 392.511ZM226.295 392.044C227.563 394.313 228.764 396.383 228.831 396.65C228.965 396.984 227.897 397.184 226.428 397.184C223.958 397.184 223.691 396.984 221.288 392.978C219.886 390.709 218.618 388.639 218.484 388.306C218.351 388.039 219.486 387.838 221.088 387.838C223.891 387.838 224.025 387.905 226.295 392.044L226.295 392.044ZM234.439 392.645L236.842 397.184L234.305 397.184C231.902 397.184 231.635 396.984 229.032 392.845C227.496 390.509 226.295 388.372 226.295 388.172C226.295 387.905 227.563 387.838 229.098 387.972C231.835 388.172 232.036 388.306 234.439 392.645L234.439 392.645ZM241.915 391.043C243.05 392.778 244.318 394.848 244.852 395.649C245.787 397.184 245.787 397.184 242.582 397.184L239.312 397.184L236.842 392.845C235.44 390.509 234.305 388.439 234.305 388.239C234.305 388.039 235.573 387.838 237.175 387.838C239.779 387.838 240.113 388.039 241.915 391.043L241.915 391.043ZM249.458 388.639C249.792 389.107 251.06 391.243 252.262 393.312L254.398 397.184L251.194 397.184L247.99 397.117L244.785 392.511L241.581 387.838L245.186 387.838C247.322 387.838 249.124 388.172 249.458 388.639L249.458 388.639ZM260.072 391.643C263.476 396.984 263.476 396.917 260.139 397.117C257.202 397.251 257.202 397.184 254.398 392.978C252.929 390.642 251.661 388.573 251.661 388.306C251.661 388.039 252.996 387.838 254.665 387.838C257.535 387.838 257.669 387.972 260.072 391.643L260.072 391.643ZM269.084 392.311L270.953 396.516L268.349 396.516C266.08 396.516 265.546 396.183 263.343 393.112C259.605 387.838 259.605 387.705 263.677 387.972L267.215 388.172L269.084 392.311L269.084 392.311ZM275.492 391.31C279.497 396.717 279.497 396.516 276.226 396.45C273.356 396.45 273.356 396.45 271.153 392.111L269.017 387.838L270.953 387.838C272.488 387.838 273.356 388.506 275.492 391.31L275.492 391.31ZM284.303 391.844C287.241 396.249 287.441 395.849 282.768 396.116C282.301 396.183 280.699 394.647 279.23 392.845C275.225 387.705 275.225 387.838 278.629 387.838C281.567 387.838 281.7 387.905 284.303 391.844L284.303 391.844ZM292.18 391.844L294.317 395.849L292.047 395.849C290.044 395.849 289.444 395.382 287.04 392.177C285.572 390.175 284.37 388.372 284.37 388.172C284.37 387.972 285.639 387.838 287.241 387.838C289.978 387.838 290.111 387.972 292.18 391.844L292.18 391.844ZM299.19 391.443C301.059 394.314 301.326 395.181 300.591 395.448C297.921 396.516 296.72 395.782 294.25 391.844L291.78 387.838L294.25 387.838C296.586 387.838 296.987 388.172 299.19 391.443L299.19 391.443ZM342.112 399.988C342.312 400.855 345.316 414.74 348.721 430.894C354.729 459.532 354.862 460.266 353.527 460.8C352.793 461.067 350.99 461.267 349.455 461.134L346.785 460.934L331.632 430.561C316.546 400.321 316.479 400.188 318.281 399.988C319.283 399.921 324.289 399.587 329.429 399.253C334.569 398.986 339.442 398.652 340.243 398.586C341.311 398.519 341.845 398.986 342.112 399.988L342.112 399.988ZM163.079 400.922C167.752 401.189 171.557 401.656 171.557 401.99C171.557 402.257 164.948 415.808 156.804 431.962L142.118 461.401L138.447 461.134C136.444 460.934 134.709 460.667 134.575 460.533C134.375 460.4 136.778 448.384 139.849 433.898C142.853 419.413 145.723 405.795 146.19 403.592L146.991 399.72L150.73 400.121C152.866 400.321 158.339 400.722 163.079 400.922L163.079 400.922ZM200.261 178.966C158.139 179.901 128.768 182.304 122.359 185.375C118.488 187.177 116.352 193.252 114.549 207.604C112.613 223.024 111.879 238.844 111.879 268.683C111.879 307.2 113.548 333.968 116.886 349.388C119.022 359.602 120.69 361.07 131.505 362.739C166.483 368.213 291.98 368.48 322.754 363.073C328.561 362.072 330.697 361.271 332.366 359.535C336.505 355.129 338.307 335.704 338.908 288.709C339.509 237.176 337.239 195.788 333.301 187.711C332.366 185.842 331.432 184.974 328.962 184.106C321.819 181.503 302.194 179.834 268.016 178.9C241.782 178.165 233.771 178.232 200.261 178.966L200.261 178.966ZM291.046 184.908C313.542 186.176 326.292 187.845 328.294 189.781C334.369 195.855 335.904 319.95 330.297 350.123C329.896 352.326 329.295 354.662 328.962 355.263C328.227 356.865 324.956 357.599 314.409 358.801C298.789 360.536 283.102 361.204 247.99 361.604C202.063 362.138 158.406 360.737 136.511 358.066C125.563 356.731 124.028 356.13 122.96 352.726C116.886 332.166 114.95 251.394 119.556 209.606C120.49 201.062 122.626 191.917 124.028 190.715C125.63 189.247 129.569 188.445 140.85 187.311C154.067 185.976 173.626 184.841 196.256 184.24C218.885 183.572 274.624 183.973 291.046 184.908L291.046 184.908ZM317.08 190.181C317.08 190.448 318.281 191.583 319.75 192.584C321.152 193.585 323.621 195.989 325.157 197.991C327.76 201.396 329.095 202.397 329.095 200.995C329.095 199.393 324.422 193.652 321.485 191.716C318.214 189.513 317.08 189.113 317.08 190.181L317.08 190.181ZM268.622 204.185C268.622 204.719 312.212 251.38 315.216 254.05C317.886 256.387 317.619 254.451 314.949 251.58C298.928 234.759 270.624 205.187 269.757 204.452C269.089 203.985 268.622 203.852 268.622 204.185L268.622 204.185ZM240.986 206.455C241.72 207.323 246.526 212.863 251.667 218.738C256.74 224.612 270.558 240.166 282.306 253.383C294.055 266.533 304.535 278.349 305.537 279.55C306.605 280.819 307.94 281.82 308.474 281.82C309.809 281.82 308.274 279.951 289.916 259.457C252 217.069 241.52 205.521 240.318 205.12C239.918 204.987 240.185 205.587 240.986 206.455L240.986 206.455ZM225.9 222.81C225.9 223.277 231.907 230.286 258.876 261.46C284.042 290.565 290.918 298.108 291.185 297.24C291.518 296.172 282.24 285.291 234.644 231.287C227.568 223.277 225.9 221.675 225.9 222.81L225.9 222.81ZM126.498 341.578C126.632 343.447 127.366 346.184 128.1 347.653C129.569 350.523 133.24 354.061 135.51 354.795C137.713 355.463 137.779 354.795 135.71 353.46C130.837 350.39 128.634 347.252 127.099 341.445L126.231 338.107L126.498 341.578L126.498 341.578ZM381.163 184.841C380.762 185.642 380.762 186.309 381.096 186.576C381.497 186.777 382.097 186.376 382.498 185.642C382.898 184.841 382.898 184.173 382.565 183.906C382.164 183.706 381.563 184.106 381.163 184.841L381.163 184.841ZM365.142 185.108C365.142 186.309 367.011 187.911 367.612 187.311C368.213 186.777 367.011 184.774 365.943 184.373C365.476 184.24 365.142 184.574 365.142 185.108L365.142 185.108ZM371.284 189.78C368.413 190.648 365.81 193.185 365.81 194.987C365.81 195.788 364.742 197.657 363.407 199.126C359.401 203.532 358.133 207.07 358.133 213.945C358.133 219.085 358.4 220.487 359.869 223.625C363.14 230.5 370.215 235.774 377.492 236.775C379.294 236.975 381.23 237.576 381.697 238.11C384.701 241.047 395.849 236.975 395.849 232.903C395.849 232.102 396.783 230.433 397.918 229.098C403.459 222.824 405.061 213.411 401.923 205.401C399.187 198.325 391.71 192.451 383.833 191.249C382.164 190.982 380.229 190.315 379.494 189.847C378.026 188.779 374.488 188.712 371.284 189.78L371.284 189.78ZM378.293 198.725C380.629 203.865 387.838 223.491 389.44 228.831L390.442 232.369L388.773 232.97C385.168 234.372 384.768 234.038 381.564 226.361C378.026 217.951 372.952 204.132 371.684 199.393C370.883 196.389 370.95 196.055 372.151 195.188C374.888 193.185 376.156 193.986 378.293 198.725L378.293 198.725ZM389.841 199.126C395.849 202.664 399.52 210.674 398.185 217.083C397.651 219.419 394.581 225.961 394.18 225.494C394.046 225.427 392.578 221.355 390.842 216.615C389.107 211.809 386.704 205.468 385.502 202.397C383.299 196.99 383.299 196.923 384.768 196.923C385.569 196.923 387.838 197.924 389.841 199.126L389.841 199.126ZM370.082 211.409C371.35 215.013 373.62 220.954 375.089 224.559C376.557 228.231 377.692 231.301 377.558 231.501C377.358 231.635 375.823 231.101 374.02 230.3C364.541 226.161 360.536 215.547 364.875 206.269C366.878 201.93 366.811 201.863 370.082 211.409L370.082 211.409ZM373.152 197.457C373.152 198.926 384.434 227.096 385.368 228.097C386.637 229.299 385.368 225.227 381.096 214.146C375.489 199.727 373.152 194.854 373.152 197.457L373.152 197.457ZM392.978 189.38C392.711 189.58 392.511 190.381 392.511 191.049C392.511 192.784 394.113 192.184 394.38 190.381C394.58 188.979 393.846 188.445 392.978 189.38L392.978 189.38ZM357.466 195.521C357.265 195.922 357.666 196.523 358.4 196.923C359.201 197.324 359.869 197.324 360.136 196.99C360.336 196.589 359.935 195.989 359.201 195.588C358.4 195.188 357.733 195.188 357.466 195.521L357.466 195.521ZM403.459 198.525C402.19 199.46 402.19 199.527 403.459 199.994C404.794 200.528 406.596 199.66 407.063 198.392C407.397 197.257 405.061 197.39 403.459 198.525L403.459 198.525ZM97.0597 244.986C97.26 266.814 97.4602 291.713 97.4602 300.191C97.4602 311.339 97.6605 315.744 98.1945 315.744C99.2626 315.744 98.328 206.936 97.3267 205.935C96.8595 205.468 96.7259 217.617 97.0597 244.986L97.0597 244.986ZM353.527 208.071C353.327 208.271 353.66 208.872 354.328 209.339C355.663 210.407 356.464 210.474 356.464 209.606C356.464 208.805 354.128 207.537 353.527 208.071L353.527 208.071ZM372.085 244.986C361.204 249.325 356.064 261.207 360.87 270.886C365.543 280.365 377.759 284.704 387.171 280.298C397.317 275.492 401.256 264.344 396.316 254.598C391.91 245.853 380.829 241.514 372.085 244.986L372.085 244.986ZM377.291 252.329C376.958 256.534 377.492 258.136 378.76 257.068C379.361 256.534 379.561 255.332 379.294 252.996C378.893 248.657 379.961 248.19 385.035 250.726C389.841 253.196 392.578 256.868 393.045 261.607C393.646 268.349 389.374 274.557 382.832 276.36C374.087 278.83 364.475 271.887 364.475 263.209C364.475 259.271 365.943 255.666 368.613 253.196C370.082 251.794 375.489 249.058 376.824 248.991C377.225 248.991 377.425 250.393 377.291 252.329L377.291 252.329ZM366.544 260.272C364.541 263.944 366.878 269.952 371.684 273.289C375.355 275.893 381.03 276.427 384.501 274.491C387.438 272.889 390.175 267.882 389.574 265.346C388.906 262.809 387.571 263.677 387.104 266.881C386.637 270.285 385.035 272.154 381.697 273.156C375.088 275.092 366.945 268.483 368.213 262.075C368.68 259.471 367.545 258.336 366.544 260.272L366.544 260.272ZM359.802 246.254C359.802 247.122 361.538 248.39 362.005 247.856C362.539 247.389 361.271 245.653 360.403 245.653C360.069 245.653 359.802 245.92 359.802 246.254L359.802 246.254ZM398.652 247.789C398.185 248.257 397.851 249.124 397.851 249.859C397.851 251.861 400.121 250.927 400.388 248.791C400.655 246.855 399.988 246.454 398.652 247.789L398.652 247.789ZM400.655 255.132C399.587 256.2 399.654 257.669 400.722 257.669C401.857 257.669 403.192 256.334 403.192 255.199C403.192 254.131 401.723 254.064 400.655 255.132L400.655 255.132ZM353.794 256.267C353.794 257.001 355.53 257.736 356.064 257.202C356.264 257.001 356.264 256.534 356.064 256.267C355.596 255.466 353.794 255.533 353.794 256.267L353.794 256.267ZM354.128 289.31C351.658 290.378 348.587 293.849 348.053 296.119C347.319 299.123 348.187 303.595 350.056 305.998C352.125 308.802 356.798 310.738 359.935 310.137C369.882 308.268 372.552 296.252 364.341 290.178C362.071 288.509 356.798 288.042 354.128 289.31L354.128 289.31ZM361.671 294.784C364.007 296.386 364.608 298.722 363.473 301.459C361.204 307 353.126 305.398 353.126 299.39C353.126 294.784 357.999 292.18 361.671 294.784L361.671 294.784ZM394.714 289.711C391.577 291.313 390.242 292.982 389.24 296.786C387.705 302.527 392.111 309.203 398.119 310.07C401.923 310.671 406.396 308.802 408.599 305.665C410.735 302.594 410.868 296.052 408.799 293.315C405.261 288.576 399.787 287.174 394.714 289.711L394.714 289.711ZM403.526 295.385C407.464 299.256 403.859 305.932 398.519 304.73C394.113 303.729 392.645 298.255 396.116 295.318C398.519 293.249 401.456 293.249 403.526 295.385L403.526 295.385ZM367.812 318.481C361.003 318.682 354.595 318.949 353.527 319.015C351.992 319.082 351.725 319.283 352.259 319.817C353.126 320.684 396.984 320.15 401.523 319.216L404.193 318.682L399.921 318.214C395.181 317.68 386.236 317.747 367.812 318.481L367.812 318.481ZM371.15 323.755C364.341 324.022 357.399 324.289 355.663 324.356C353.794 324.356 352.459 324.756 352.459 325.157C352.459 326.158 399.186 325.557 402.19 324.556C404.126 323.888 404.126 323.888 401.189 323.822C399.52 323.755 394.914 323.621 390.842 323.488C386.837 323.354 377.959 323.488 371.15 323.755L371.15 323.755ZM370.149 329.162C359.201 329.562 352.592 330.03 352.125 330.497C351.124 331.565 402.257 330.964 403.325 329.896C403.926 329.295 402.858 329.095 398.719 329.095C395.782 329.095 392.044 328.962 390.442 328.828C388.84 328.695 379.694 328.828 370.149 329.162L370.149 329.162ZM359.468 334.903C355.797 335.036 352.526 335.437 352.192 335.771C351.725 336.238 358.266 336.438 370.215 336.438C390.709 336.438 403.859 335.904 403.859 334.97C403.859 334.502 374.688 334.435 359.468 334.903L359.468 334.903ZM360.67 340.377C345.583 341.111 351.458 341.778 372.619 341.778C394.247 341.778 403.859 341.311 403.859 340.377C403.859 339.709 374.287 339.776 360.67 340.377L360.67 340.377ZM362.005 345.717C356.798 345.917 352.325 346.318 352.058 346.585C351.791 346.918 355.329 347.119 359.869 347.119C393.713 347.252 403.859 346.918 403.859 345.717C403.859 345.049 377.825 345.116 362.005 345.717L362.005 345.717ZM363.34 351.057C357.399 351.324 352.325 351.658 352.125 351.925C351.057 352.993 359.468 353.327 377.091 352.86C387.505 352.593 397.918 352.192 400.121 351.992L404.193 351.524L401.523 351.057C398.519 350.456 379.494 350.523 363.34 351.057L363.34 351.057ZM366.477 356.464C360.403 356.731 354.595 356.998 353.594 357.065C352.392 357.132 351.858 357.399 352.192 357.866C352.726 358.734 395.916 358.2 401.189 357.265L404.193 356.731L399.921 356.264C395.115 355.73 382.832 355.797 366.477 356.464L366.477 356.464Z" id="Group" fill="#000000" stroke="none" />
    </g>
    <g id="icon-search" transform="translate(139 256)" artboard="c9cbb71b-fc9f-40fb-88bc-6d523b99b794">
      <path d="M61.5664 55.4604L84.7434 78.6804C86.1932 80.3967 86.0773 82.9399 84.4774 84.5173C82.8775 86.0946 80.333 86.1744 78.6374 84.7004L55.5034 61.5664C41.1585 72.7098 20.6217 70.7796 8.60436 57.1584C-3.41296 43.5372 -2.76871 22.9199 10.0756 10.0756C22.9199 -2.76871 43.5372 -3.41296 57.1584 8.60436C70.7796 20.6217 72.7098 41.1585 61.5664 55.5034L61.5664 55.4604ZM34.3904 60.1904C48.6394 60.1904 60.1904 48.6394 60.1904 34.3904C60.1904 20.1415 48.6394 8.59042 34.3904 8.59042C20.1415 8.59042 8.59042 20.1415 8.59042 34.3904C8.59042 48.6394 20.1415 60.1904 34.3904 60.1904Z" id="icon-search" fill="none" stroke="none" />
      <g clip-path="url(#mask_2)">
        <path d="M-21.5098 -21.5095L107.49 -21.5095L107.49 107.49L-21.5098 107.49L-21.5098 -21.5095Z" id="Rectangle" fill="#000000" fill-rule="evenodd" stroke="none" />
      </g>
    </g>
  </g>
</svg>