<?xml version="1.0" encoding="utf-8"?>
<!-- Generator: Adobe Illustrator 24.2.3, SVG Export Plug-In . SVG Version: 6.00 Build 0)  -->
<svg version="1.1" id="Layer_1" xmlns="http://www.w3.org/2000/svg" xmlns:xlink="http://www.w3.org/1999/xlink" x="0px" y="0px"
	 viewBox="0 0 767 767" style="enable-background:new 0 0 767 767;" xml:space="preserve">
<g transform="translate(0.000000,220.000000) scale(0.100000,-0.100000)">
	<path d="M1791.6,825.7C1480.4,738,1274.9,457,1274.9,121.5c0-256.9,72.5-450.3,223.6-592.3c66.5-66.5,196.4-190.4,284.1-278
		c148.1-148.1,229.7-148.1,90.7,0l-66.5,69.5l81.6-6c48.4-3,78.6-21.2,69.5-42.3c-9.1-21.2,6-60.4,30.2-93.7
		c39.3-51.4,42.3-51.4,24.2,6c-15.1,54.4-12.1,54.4,39.3-9.1c45.3-57.4,81.6-66.5,208.5-63.5l154.1,6l-63.5,63.5
		c-87.6,87.6-145.1,90.7-123.9,9.1c15.1-57.4,12.1-57.4-27.2,9.1c-27.2,42.3-45.3,57.4-48.4,33.2c0-24.2-9.1-36.3-18.1-24.2
		c-9.1,9.1-3,42.3,15.1,72.5c18.1,30.2,33.2,39.3,33.2,21.2c0-18.1,21.2-33.2,45.3-33.2c27.2,0,42.3,18.1,33.2,42.3
		c-15.1,36.3,0,45.3,60.4,36.3c12.1,0,33.2,15.1,45.3,39.3c15.1,21.2,27.2,27.2,27.2,9.1c0-15.1-15.1-51.4-30.2-75.6
		c-24.2-36.3-30.2-36.3-30.2-3c0,24.2-9.1,36.3-18.1,27.2c-27.2-27.2,48.4-148.1,78.6-130c15.1,9.1,33.2-12.1,45.3-45.3
		c12.1-39.3,45.3-60.4,93.7-60.4c93.7,0,93.7,51.4-6,214.6c-72.5,120.9-78.6,114.8-21.2-24.2c12.1-33.2,9.1-42.3-18.1-24.2
		c-30.2,18.1-33.2,9.1-3-42.3c18.1-36.3,45.3-57.4,63.5-48.4c15.1,12.1,27.2,3,27.2-12.1c0-66.5-90.7-30.2-136,57.4
		c-51.4,99.7-57.4,133-21.2,108.8c15.1-9.1,24.2,12.1,24.2,48.4c-3,99.7,60.4,96.7,102.8-6c21.2-51.4,42.3-87.6,48.4-81.6
		c9.1,6-9.1,63.5-36.3,130c-27.2,63.5-33.2,105.8-18.1,87.6c45.3-42.3,130-262.9,96.7-241.8c-39.3,24.2-39.3-18.1,0-75.6
		c21.2-33.2,30.2-33.2,30.2-6c0,21.2,15.1,30.2,30.2,21.2c18.1-12.1,24.2-33.2,15.1-48.4c-12.1-15.1,3-27.2,27.2-27.2
		c39.3,0,24.2,45.3-60.4,214.6c-60.4,117.9-102.8,220.6-93.7,229.7c9.1,9.1,66.5-78.6,123.9-190.4
		c57.4-114.8,105.8-196.4,108.8-184.4c0,12.1-39.3,102.8-90.7,202.5c-102.8,202.5-105.8,220.6-51.4,278
		c57.4,57.4,111.8,229.7,93.7,290.1c-15.1,42.3-9.1,42.3,30.2-6c57.4-69.5,63.5-120.9,12.1-90.7c-24.2,15.1-27.2,6-15.1-30.2
		c12.1-30.2,21.2-63.5,21.2-72.5c0-12.1,12.1-3,27.2,18.1c21.2,33.2,27.2,30.2,42.3-9.1c12.1-30.2,9.1-42.3-12.1-27.2
		c-42.3,27.2-21.2-42.3,108.8-341.5l102.8-235.7l-96.7-18.1c-54.4-12.1,130-21.2,411-24.2l504.7-3v-120.9v-120.9l-1078.9-3
		c-595.4-3-1115.2-15.1-1157.5-27.2s531.9-24.2,1278.4-27.2l1350.9-3v-740.4c0-571.2-9.1-740.4-36.3-740.4
		c-21.2,0-405,15.1-855.3,33.2c-788.8,30.2-1861.7,9.1-1707.5-33.2c42.3-12.1,223.6-30.2,405-42.3c341.5-21.2,414-39.3,347.6-78.6
		c-51.4-33.2,142-151.1,253.9-151.1c72.5,0,81.6,12.1,84.6,114.8l6,111.8l18.1-120.9l18.1-120.9l211.6-15.1
		c117.9-9.1,259.9-39.3,320.4-66.5c332.4-157.2,166.2-689.1-217.6-689.1c-96.7,0-359.6,130-359.6,178.3
		c0,48.4,187.4,96.7,229.7,60.4c63.5-54.4,199.5-18.1,262.9,69.5c60.4,78.6,60.4,90.7,12.1,187.4c-27.2,57.4-78.6,111.8-114.8,123.9
		c-84.6,27.2-205.5-39.3-226.7-123.9c-12.1-48.4-57.4-81.6-151.1-114.8l-133-45.3l-21.2,81.6c-12.1,54.4,3,117.9,45.3,202.5
		l66.5,120.9l-75.6-84.6c-54.4-63.5-75.6-117.9-75.6-214.6v-130l-278-81.6c-405-120.9-456.4-142-311.3-117.9
		c229.7,33.2,840.2,220.6,985.2,302.2c108.8,63.5,154.1,75.6,181.3,48.4c45.3-45.3,9.1-99.7-72.5-99.7c-60.4,0-819-259.9-1088-371.7
		l-111.8-48.4l-102.8,105.8L1704-3547.5l-172.3-60.4c-96.7-33.2-184.4-69.5-193.4-81.6c-18.1-21.2-6-18.1,235.7,51.4
		c126.9,39.3,133,36.3,202.5-45.3c75.6-84.6,93.7-181.3,42.3-214.6c-18.1-12.1-33.2,18.1-33.2,66.5c-6,81.6-6,81.6-21.2,9.1
		c-12.1-72.5-15.1-72.5-39.3-15.1c-24.2,51.4-27.2,45.3-18.1-24.2c12.1-78.6,3-84.6-181.3-142c-229.7-69.5-220.6-69.5-220.6-30.2
		c0,18.1,24.2,30.2,54.4,33.2c27.2,0,36.3,9.1,15.1,15.1c-21.2,9.1-27.2,36.3-18.1,60.4c9.1,24.2-3,42.3-33.2,42.3
		c-33.2,0-48.4-27.2-48.4-81.6c-3-75.6-6-78.6-33.2-27.2c-24.2,39.3-24.2,75.6,0,130c45.3,96.7,42.3,114.8-12.1,69.5
		c-57.4-48.4-57.4-223.6,0-272c51.4-42.3,181.3-24.2,462.4,66.5c151.1,51.4,187.4,75.6,187.4,126.9c0,54.4,57.4,81.6,408,202.5
		c389.9,130,411,133,459.4,81.6c24.2-27.2,108.8-81.6,181.3-117.9c275-133,568.2-21.2,649.8,250.8c21.2,72.5,51.4,114.8,81.6,111.8
		c27.2,0,259.9-30.2,516.8-69.5c308.3-45.3,465.4-81.6,459.4-105.8c-9.1-48.4,93.7-81.6,332.4-105.8l202.5-21.2l18.1,114.8
		c12.1,63.5,27.2,139,36.3,166.2c9.1,39.3-12.1,63.5-66.5,84.6c-69.5,27.2-78.6,42.3-60.4,114.8c51.4,205.5,105.8,480.5,105.8,556.1
		c0,102.8,24.2,117.9,160.2,93.7c102.8-15.1,111.8-24.2,111.8-114.8s57.4-154.1,130-142c12.1,3,21.2-18.1,21.2-51.4
		c0-96.7,72.5-123.9,559.1-217.6c259.9-48.4,501.7-93.7,541-105.8c42.3-9.1,81.6-3,93.7,21.2c33.2,51.4,18.1,1949.3-15.1,2030.9
		c-15.1,39.3-27.2-326.4-27.2-955l-3-1018.5l-66.5,15.1c-272,63.5-538,105.8-743.5,123.9l-238.8,21.2l-21.2,607.5
		c-9.1,332.4-21.2,719.3-21.2,855.3c-3,136-18.1,262.9-30.2,287.1c-21.2,30.2-27.2,27.2-27.2-12.1c0-33.2-24.2-54.4-54.4-54.4
		c-69.5,0-126.9-57.4-126.9-126.9c0-45.3-27.2-54.4-166.2-54.4c-133,0-637.7-45.3-785.8-69.5c-15.1-3-33.2,24.2-39.3,63.5
		c-6,36.3-36.3,84.6-69.5,105.8c-30.2,18.1-57.4,63.5-57.4,99.7c0,78.6-51.4,102.8-229.7,102.8h-133v145.1
		c0,139,9.1,151.1,226.7,374.8c272,278,344.5,423.1,347.6,677c0,329.4-202.5,616.5-510.8,722.3c-266,90.7-559.1,27.2-764.6-166.2
		c-123.9-120.9-126.9-120.9-365.7-120.9c-235.7,0-241.8,3-374.8,117.9C2308.4,837.7,2048.5,901.2,1791.6,825.7z M2257.1,722.9
		c226.7-105.8,408-365.7,432.2-619.5c36.3-383.8-272-692.1-698.1-692.1c-583.3,0-894.6,701.1-513.8,1148.4
		C1698,816.6,1948.8,871,2257.1,722.9z M4070.4,701.7c241.8-123.9,389.9-377.8,392.9-661.9c0-175.3-12.1-217.6-90.7-329.4
		c-247.8-353.6-791.8-405-1075.9-96.7c-175.3,187.4-244.8,459.4-181.3,698.1c57.4,211.6,284.1,426.1,516.8,489.6
		C3716.8,822.6,3931.4,777.3,4070.4,701.7z M2940.1,175.9c184.4-402,178.3-414-15.1-39.3c-90.7,175.3-166.2,308.3-166.2,296.2
		c-3-12.1,126.9-296.2,287.1-628.6c160.2-332.4,284.1-613.5,275-625.6c-51.4-48.4-126.9,54.4-290.1,389.9
		c-199.5,417.1-278,598.4-256.9,598.4c9.1,0,114.8-211.6,241.8-474.5c123.9-259.9,232.7-465.4,241.8-456.4
		c9.1,9.1-114.8,287.1-272,616.5c-160.2,326.4-290.1,598.4-290.1,598.4c0,3,24.2,6,54.4,9.1C2792,463,2837.3,390.5,2940.1,175.9z
		 M2961.2,308.9c93.7-220.6,81.6-250.8-24.2-51.4c-93.7,175.3-105.8,211.6-66.5,211.6C2882.7,469,2921.9,396.5,2961.2,308.9z
		 M3012.6,408.6c-18.1,72.5-15.1,72.5,27.2,18.1c54.4-69.5,63.5-120.9,15.1-90.7c-24.2,12.1-27.2,0-12.1-45.3
		c33.2-105.8-12.1-72.5-60.4,45.3c-57.4,139-57.4,169.2,3,72.5l45.3-75.6L3012.6,408.6z M3360.2-649.2
		c39.3-81.6,75.6-145.1,81.6-139c9.1,6-9.1,54.4-36.3,108.8c-27.2,54.4-42.3,102.8-33.2,111.8c9.1,9.1,33.2-18.1,51.4-63.5
		c27.2-60.4,45.3-69.5,63.5-42.3c18.1,24.2,21.2,12.1,9.1-33.2c-15.1-48.4-12.1-63.5,12.1-51.4c18.1,12.1,33.2,45.3,33.2,72.5
		c3,39.3,15.1,33.2,48.4-24.2c24.2-42.3,39.3-51.4,30.2-21.2c-9.1,27.2-3,51.4,12.1,51.4c18.1,0,30.2-15.1,30.2-33.2
		c0-15.1,12.1-24.2,24.2-15.1c12.1,6,24.2-12.1,24.2-42.3c0-42.3-9.1-48.4-39.3-24.2c-30.2,24.2-39.3,21.2-39.3-9.1
		c0-24.2-18.1-15.1-42.3,21.2c-36.3,48.4-45.3,51.4-63.5,12.1c-9.1-27.2-42.3-48.4-69.5-51.4c-39.3-3-84.6,54.4-154.1,196.4
		c-54.4,108.8-78.6,184.4-57.4,163.2C3269.5-479.9,3320.9-564.6,3360.2-649.2z M3130.5-730.8c27.2-54.4,36.3-99.7,21.2-99.7
		c-15.1,0-33.2,24.2-42.3,54.4c-6,27.2-24.2,78.6-36.3,111.8C3039.8-579.7,3073.1-615.9,3130.5-730.8z M2112-748.9
		c-3-39.3,9.1-63.5,33.2-57.4c18.1,3,36.3-6,36.3-24.2c0-60.4-78.6-27.2-126.9,54.4c-48.4,78.6-48.4,84.6,6,87.6
		C2102.9-685.4,2118-700.5,2112-748.9z M5626.8-1380.5c0-15.1-27.2-9.1-60.4,12.1c-33.2,21.2-60.4,48.4-60.4,60.4
		c0,15.1,27.2,9.1,60.4-12.1C5599.6-1341.3,5626.8-1368.5,5626.8-1380.5z M4402.8-1434.9c9.1-15.1,3-30.2-12.1-30.2
		c-18.1,0-33.2,15.1-33.2,30.2c0,18.1,6,30.2,12.1,30.2C4378.6-1404.7,4393.8-1416.8,4402.8-1434.9z M5451.5-1876.2
		c6-241.8,6-444.3,0-450.3s-45.3,0-90.7,12.1l-81.6,21.2l-18.1,392.9c-24.2,456.4-21.2,432.2-60.4,374.8
		c-18.1-30.2-21.2-175.3-9.1-398.9c18.1-347.6,18.1-356.6-45.3-356.6c-60.4,0-63.5,12.1-63.5,405v408l84.6,12.1
		c45.3,6,123.9,15.1,178.3,18.1l96.7,3L5451.5-1876.2z M5010.3-1649.5c-9.1-102.8-18.1-281.1-18.1-395.9c0-184.4-6-208.5-51.4-199.5
		c-45.3,9.1-51.4,36.3-42.3,172.3c3,87.6,0,250.8-12.1,359.6c-30.2,290.1-75.6,175.3-75.6-199.5c0-281.1-6-311.3-51.4-302.2
		c-48.4,9.1-54.4,54.4-63.5,362.7l-9.1,353.6l99.7,12.1C5049.6-1456.1,5034.5-1444,5010.3-1649.5z M5578.5-1483.3
		c66.5-24.2,60.4-75.6-3-54.4c-51.4,15.1-51.4,15.1,0-27.2c69.5-57.4,66.5-90.7-6-51.4c-33.2,15.1-57.4,57.4-54.4,90.7
		c3,33.2,6,60.4,9.1,60.4C5527.1-1465.2,5551.3-1474.2,5578.5-1483.3z M4653.7-1849c-9.1-332.4-12.1-356.6-69.5-356.6
		c-48.4,0-63.5,27.2-78.6,120.9l-18.1,120.9l-6-111.8c-3-93.7-15.1-114.8-63.5-114.8c-60.4,0-63.5,15.1-54.4,308.3
		c9.1,296.2,12.1,311.3,84.6,347.6c42.3,21.2,105.8,39.3,145.1,39.3C4659.7-1495.4,4662.7-1498.4,4653.7-1849z M5596.6-1676.7
		c24.2-15.1,36.3-33.2,27.2-42.3c-9.1-9.1-42.3,3-75.6,27.2C5484.8-1643.5,5524.1-1631.4,5596.6-1676.7z M5596.6-1767.4
		c24.2-15.1,36.3-33.2,27.2-42.3c-9.1-9.1-42.3,3-75.6,27.2C5484.8-1734.1,5524.1-1722,5596.6-1767.4z M5596.6-1858
		c24.2-15.1,36.3-33.2,27.2-42.3c-9.1-9.1-42.3,3-75.6,27.2C5484.8-1824.8,5524.1-1812.7,5596.6-1858z M5596.6-1948.7
		c24.2-15.1,36.3-33.2,27.2-42.3c-9.1-9.1-42.3,3-75.6,27.2C5484.8-1915.5,5524.1-1903.4,5596.6-1948.7z M5596.6-2039.4
		c24.2-15.1,33.2-36.3,21.2-48.4c-12.1-12.1-45.3,0-72.5,27.2C5490.8-2006.1,5521-1991,5596.6-2039.4z M5614.7-2211.6
		c-21.2-21.2-78.6,21.2-78.6,57.4c0,18.1,18.1,18.1,45.3-6C5608.7-2181.4,5620.8-2205.6,5614.7-2211.6z M4448.2-2263
		c0-9.1-12.1-24.2-30.2-33.2c-15.1-9.1-30.2-3-30.2,12.1c0,18.1,15.1,33.2,30.2,33.2C4436.1-2250.9,4448.2-2257,4448.2-2263z
		 M5611.7-2284.2c33.2-51.4-3-63.5-45.3-12.1c-24.2,27.2-24.2,45.3-6,45.3S5602.6-2266,5611.7-2284.2z M4810.8-2323.5
		c0-9.1-12.1-24.2-30.2-33.2c-15.1-9.1-30.2-3-30.2,12.1c0,18.1,15.1,33.2,30.2,33.2C4798.7-2311.4,4810.8-2317.4,4810.8-2323.5z
		 M4931.7-2374.8c0-15.1-12.1-27.2-30.2-27.2c-15.1,0-30.2,21.2-30.2,48.4c0,24.2,15.1,36.3,30.2,27.2
		C4919.6-2335.6,4931.7-2356.7,4931.7-2374.8z M5626.8-2408.1c0-18.1-18.1-15.1-45.3,6c-24.2,21.2-45.3,42.3-45.3,48.4
		s21.2,3,45.3-6C5605.7-2371.8,5626.8-2393,5626.8-2408.1z M4680.9-2420.2c163.2-24.2,299.2-51.4,305.2-57.4c6-6-6-114.8-24.2-247.8
		c-18.1-130-30.2-290.1-24.2-356.6c9.1-99.7,15.1-75.6,48.4,136c69.5,459.4,69.5,453.3,133,453.3c51.4,0,57.4-15.1,42.3-81.6
		c-9.1-48.4-39.3-214.6-69.5-371.7c-27.2-157.2-51.4-290.1-51.4-290.1c-3-3-75.6,6-163.2,18.1c-117.9,15.1-166.2,9.1-181.3-21.2
		c-18.1-30.2-93.7-30.2-414,6c-571.2,66.5-683,93.7-761.6,193.4l-66.5,87.6l114.8,18.1c81.6,12.1,145.1,48.4,199.5,114.8
		c78.6,93.7,96.7,99.7,329.4,114.8c163.2,9.1,244.8,27.2,247.8,54.4c3,18.1,6,90.7,9.1,157.2c0,66.5,9.1,120.9,18.1,120.9
		S4520.7-2393,4680.9-2420.2z M5611.7-2486.7c-9.1-9.1-33.2,0-54.4,21.2c-27.2,30.2-24.2,33.2,18.1,15.1
		C5605.7-2459.5,5620.8-2477.6,5611.7-2486.7z M5611.7-2553.2c9.1-15.1,3-30.2-18.1-30.2c-24.2,0-24.2-12.1,3-45.3
		c33.2-39.3,30.2-42.3-9.1-27.2c-27.2,9.1-45.3,42.3-42.3,75.6C5548.2-2516.9,5581.5-2504.8,5611.7-2553.2z M2665.1-2804
		c0-54.4-6-57.4-30.2-21.2c-39.3,60.4-39.3,130,0,105.8C2653-2728.4,2665.1-2767.7,2665.1-2804z M3239.3-2810v-105.8h-196.4h-196.4
		v105.8v105.8h196.4h196.4V-2810z M3329.9-2791.9c0-51.4-12.1-99.7-30.2-108.8c-18.1-12.1-30.2,24.2-30.2,87.6
		c0,60.4,15.1,108.8,30.2,108.8C3317.9-2704.3,3329.9-2743.6,3329.9-2791.9z M3381.3-2861.4c-6-39.3-12.1-15.1-12.1,51.4
		c-3,66.5,3,96.7,12.1,69.5C3387.4-2770.8,3387.4-2825.1,3381.3-2861.4z M3571.7-2776.8c0-99.7-51.4-130-69.5-42.3
		c-12.1,60.4-12.1,57.4-18.1-15.1c-3-111.8-63.5-75.6-63.5,42.3c0,72.5,12.1,87.6,75.6,87.6
		C3556.6-2704.3,3571.7-2719.4,3571.7-2776.8z M3623.1-2846.3c-9.1-30.2-15.1-6-15.1,51.4s6,81.6,15.1,54.4
		C3629.1-2770.8,3629.1-2819.1,3623.1-2846.3z M3765.1-2749.6c-12.1-24.2-30.2-36.3-45.3-27.2c-33.2,18.1-6,72.5,33.2,72.5
		C3768.2-2704.3,3774.2-2725.4,3765.1-2749.6z M3934.4-3233.1c123.9-21.2,338.5-48.4,477.5-60.4c220.6-18.1,247.8-27.2,247.8-81.6
		c0-51.4-15.1-57.4-96.7-42.3c-157.2,27.2-725.3,105.8-840.2,114.8c-84.6,6-108.8,24.2-114.8,81.6c-9.1,60.4-3,69.5,45.3,48.4
		C3683.5-3184.8,3810.5-3212,3934.4-3233.1z M4768.5-3326.8c-9.1-24.2-3-81.6,15.1-126.9c24.2-63.5,24.2-72.5-6-45.3
		c-48.4,48.4-69.5,259.9-24.2,232.7C4771.5-3275.5,4777.6-3302.7,4768.5-3326.8z M4907.5-3408.4c39.3-87.6,39.3-108.8,9.1-66.5
		c-24.2,33.2-54.4,75.6-66.5,90.7c-33.2,45.3-42.3,105.8-15.1,105.8C4847.1-3278.5,4880.3-3335.9,4907.5-3408.4z M5022.4-3338.9
		c0,21.2,6,33.2,15.1,24.2c9.1-9.1,9.1-36.3-3-63.5c-15.1-42.3-21.2-42.3-69.5,3c-30.2,27.2-48.4,63.5-39.3,78.6
		c9.1,15.1,33.2,3,57.4-27.2C5007.3-3363.1,5022.4-3366.1,5022.4-3338.9z M3133.5-3429.6c9.1-15.1,3-30.2-12.1-30.2
		c-18.1,0-33.2,15.1-33.2,30.2c0,18.1,6,30.2,12.1,30.2C3109.3-3399.4,3124.4-3411.5,3133.5-3429.6z"/>
	<path d="M1643.6,589.9C1534.8,523.4,1426,363.3,1426,272.6c0-39.3,21.2-18.1,57.4,60.4c66.5,145.1,175.3,250.8,293.2,287.1
		c63.5,18.1,69.5,27.2,27.2,27.2C1770.5,650.4,1698,623.2,1643.6,589.9z"/>
	<path d="M2287.3,553.7c60.4-51.4,136-142,169.2-202.5c42.3-75.6,54.4-87.6,39.3-33.2C2468.6,420.7,2381,541.6,2290.3,602
		C2169.4,677.6,2169.4,659.4,2287.3,553.7z"/>
	<path d="M1939.7,511.3c0-57.4,12.1-99.7,24.2-90.7c24.2,15.1,12.1,199.5-12.1,199.5C1945.8,620.1,1939.7,571.8,1939.7,511.3z"/>
	<path d="M1915.6,239.4c-90.7-60.4-93.7-266-9.1-314.3c87.6-45.3,148.1-36.3,214.6,30.2c81.6,81.6,78.6,226.7-6,284.1
		c-36.3,27.2-81.6,48.4-99.7,48.4C1997.2,287.7,1951.8,266.6,1915.6,239.4z M2102.9,169.8c42.3-45.3,45.3-69.5,15.1-136
		s-54.4-78.6-130-72.5c-78.6,6-96.7,24.2-102.8,93.7C1867.2,212.2,2000.2,284.7,2102.9,169.8z"/>
	<path d="M1954.8,76.2c12.1-18.1,33.2-24.2,48.4-15.1c42.3,27.2,33.2,45.3-21.2,45.3C1957.9,106.4,1945.8,91.3,1954.8,76.2z"/>
	<path d="M2272.2,106.4c-33.2-21.2,0-30.2,114.8-30.2c87.6,0,154.1,12.1,145.1,24.2C2510.9,136.6,2323.6,139.6,2272.2,106.4z"/>
	<path d="M1562,76.2L1441.1,55l145.1-6c90.7,0,139,9.1,126.9,27.2c-9.1,18.1-21.2,27.2-24.2,27.2
		C1685.9,100.3,1628.4,88.2,1562,76.2z"/>
	<path d="M2441.4-171.7c-42.3-87.6-120.9-190.4-175.3-226.7c-54.4-39.3-81.6-69.5-63.5-69.5c69.5,0,244.8,181.3,293.2,305.2
		C2568.3,18.7,2535.1,12.7,2441.4-171.7z"/>
	<path d="M1456.2-120.3c0-54.4,117.9-223.6,190.4-269c93.7-63.5,262.9-96.7,262.9-51.4c0,18.1-30.2,33.2-66.5,33.2
		c-99.7,0-256.9,105.8-326.4,217.6C1483.4-135.4,1456.2-102.2,1456.2-120.3z"/>
	<path d="M2000.2-356c0-60.4,12.1-111.8,30.2-111.8c15.1,0,21.2,42.3,9.1,99.7C2015.3-232.1,2000.2-226.1,2000.2-356z"/>
	<path d="M3456.9,559.7c-102.8-63.5-217.6-226.7-214.6-302.2c0-24.2,21.2-3,42.3,48.4c45.3,102.8,208.5,253.9,272,253.9
		c24.2,0,51.4,15.1,60.4,30.2C3647.3,641.3,3562.6,623.2,3456.9,559.7z"/>
	<path d="M3725.8,523.4c-3-63.5,12.1-114.8,27.2-114.8c33.2,0,33.2,42.3,0,151.1C3731.9,626.2,3728.9,623.2,3725.8,523.4z"/>
	<path d="M3955.5,556.7c145.1-72.5,169.2-96.7,250.8-256.9c39.3-81.6,57.4-99.7,60.4-57.4c0,148.1-229.7,377.8-377.8,377.8
		C3849.8,620.1,3873.9,599,3955.5,556.7z"/>
	<path d="M3680.5,212.2c-102.8-105.8-39.3-317.3,96.7-317.3c99.7,0,136,24.2,184.4,114.8C4046.2,172.9,3813.5,342.1,3680.5,212.2z
		 M3886,178.9c63.5-60.4,60.4-130-3-199.5c-69.5-75.6-154.1-66.5-196.4,21.2c-27.2,57.4-24.2,87.6,18.1,151.1
		C3762.1,239.4,3819.5,248.4,3886,178.9z"/>
	<path d="M3753,76.2c0-15.1,15.1-30.2,30.2-30.2c18.1,0,30.2,15.1,30.2,30.2c0,18.1-12.1,30.2-30.2,30.2
		C3768.2,106.4,3753,94.3,3753,76.2z"/>
	<path d="M4073.4,76.2c21.2-21.2,72.5-21.2,151.1-3l117.9,27.2l-148.1,3C4091.5,106.4,4052.2,97.3,4073.4,76.2z"/>
	<path d="M3239.3,45.9c0-15.1,60.4-30.2,136-30.2c75.6,0,136,15.1,136,30.2c0,18.1-60.4,30.2-136,30.2
		C3299.7,76.2,3239.3,64.1,3239.3,45.9z"/>
	<path d="M4266.8-132.4c-39.3-99.7-126.9-187.4-256.9-253.9c-51.4-27.2-69.5-48.4-42.3-51.4c84.6,0,250.8,136,323.4,266
		c39.3,69.5,57.4,126.9,42.3,126.9S4288-84,4266.8-132.4z"/>
	<path d="M3263.5-180.7c54.4-102.8,299.2-287.1,383.8-287.1c54.4,0,0,54.4-84.6,84.6c-57.4,21.2-154.1,87.6-217.6,151.1
		C3281.6-171.7,3245.3-147.5,3263.5-180.7z"/>
	<path d="M3786.3-368.1c-3-72.5,12.1-130,27.2-130c36.3,0,36.3,111.8,0,196.4C3792.3-256.3,3786.3-271.4,3786.3-368.1z"/>
	<path d="M2755.7-220c0-15.1-9.1-57.4-18.1-87.6c-12.1-39.3-9.1-42.3,9.1-15.1c39.3,51.4,166.2-244.8,139-317.3
		c-12.1-30.2-6-42.3,12.1-30.2c21.2,15.1,27.2,0,18.1-36.3c-12.1-48.4,69.5-117.9,99.7-84.6c12.1,12.1-220.6,568.2-247.8,592.3
		C2761.8-192.8,2755.7-201.9,2755.7-220z"/>
	<path d="M2665.1-350c0-12.1,45.3-120.9,102.8-241.8c57.4-123.9,105.8-202.5,105.8-178.3C2873.6-727.7,2668.1-310.7,2665.1-350z"/>
	<path d="M2758.7-392.3c0-15.1,24.2-78.6,57.4-136c33.2-57.4,57.4-90.7,57.4-75.6c0,18.1-24.2,78.6-57.4,136
		C2782.9-410.4,2758.7-374.2,2758.7-392.3z"/>
	<path d="M1885.3-1011.8c0-42.3,6-57.4,15.1-36.3c6,18.1,6,54.4,0,75.6C1891.4-954.4,1885.3-969.5,1885.3-1011.8z"/>
	<path d="M6113.4-1011.8c-329.4-51.4-489.6-90.7-362.7-90.7c105.8,0,1033.6,117.9,1048.7,133
		C6832.7-933.3,6479.1-957.4,6113.4-1011.8z"/>
	<path d="M1571-1320.1c-9.1-126.9-12.1-130-130-148.1l-120.9-18.1l123.9-6c117.9-3,120.9-6,108.8-93.7c-9.1-54.4,0-90.7,21.2-90.7
		c21.2,0,33.2,84.6,33.2,241.8C1607.3-1175,1586.1-1111.6,1571-1320.1z"/>
	<path d="M6285.6-1214.3c18.1-6,54.4-6,75.6,0c18.1,9.1,3,15.1-39.3,15.1S6264.5-1205.3,6285.6-1214.3z"/>
	<path d="M6052.9-1271.7c0-33.2,9.1-42.3,18.1-18.1c9.1,21.2,6,48.4-3,57.4C6059-1220.4,6049.9-1238.5,6052.9-1271.7z"/>
	<path d="M5874.6-1314.1c0-42.3,6-57.4,15.1-36.3c6,18.1,6,54.4,0,75.6C5880.7-1256.6,5874.6-1271.7,5874.6-1314.1z"/>
	<path d="M882-1894.3c0-347.6,12.1-601.4,30.2-613.5c15.1-9.1,60.4,33.2,102.8,96.7c72.5,108.8,75.6,142,81.6,534.9l3,417.1
		l-84.6,81.6c-60.4,54.4-69.5,60.4-30.2,12.1c39.3-48.4,45.3-69.5,18.1-69.5c-30.2,0-27.2-12.1,3-51.4
		c39.3-45.3,36.3-45.3-30.2-12.1c-42.3,24.2-57.4,48.4-39.3,60.4c21.2,12.1,18.1,39.3-12.1,75.6C888-1311,882-1377.5,882-1894.3z
		 M987.7-1555.8c9.1-18.1-3-21.2-27.2-12.1c-54.4,21.2-63.5,42.3-21.2,42.3C957.5-1525.6,978.7-1537.7,987.7-1555.8z M1002.9-1661.6
		c21.2-24.2,27.2-45.3,15.1-45.3s-6-21.2,15.1-45.3c57.4-69.5-12.1-54.4-75.6,15.1c-54.4,60.4-54.4,63.5,3,45.3
		c57.4-21.2,57.4-18.1,0,27.2c-33.2,27.2-45.3,48.4-27.2,48.4C951.5-1616.3,981.7-1637.4,1002.9-1661.6z M1008.9-1818.8
		c30.2-27.2,54.4-63.5,54.4-81.6s-15.1-15.1-36.3,6c-72.5,72.5-93.7,36.3-24.2-39.3c39.3-42.3,57.4-75.6,39.3-75.6
		c-48.4,0-117.9,99.7-123.9,175.3C915.2-1755.3,933.3-1749.2,1008.9-1818.8z M1002.9-2063.6c-21.2-9.1-21.2-27.2,3-54.4
		c27.2-33.2,24.2-42.3-6-42.3c-27.2-3-24.2-15.1,15.1-45.3c51.4-39.3,51.4-45.3,9.1-45.3c-33.2,0-42.3-15.1-30.2-51.4
		c12.1-33.2,9.1-42.3-18.1-27.2c-21.2,15.1-30.2,42.3-21.2,63.5c6,21.2-3,54.4-21.2,72.5c-24.2,24.2-24.2,33.2,6,33.2
		c33.2,0,33.2,9.1,3,45.3s-30.2,45.3,0,45.3c27.2,0,27.2,12.1-3,51.4c-39.3,45.3-36.3,45.3,27.2,6
		C1002.9-2036.4,1018-2060.5,1002.9-2063.6z"/>
	<path d="M3472-1335.2c-63.5-15.1-142-160.2-142-259.9c0-108.8,90.7-202.5,217.6-223.6c93.7-15.1,120.9-3,187.4,66.5
		c133,145.1,93.7,338.5-84.6,408C3562.6-1314.1,3559.6-1311,3472-1335.2z M3713.8-1441c54.4-45.3,48.4-205.5-12.1-272
		c-105.8-117.9-341.5-24.2-341.5,139c0,102.8,139,208.5,241.8,184.4C3641.2-1401.7,3695.6-1422.9,3713.8-1441z"/>
	<path d="M3511.3-1601.2c0-27.2,15.1-45.3,33.2-39.3c18.1,6,33.2,24.2,33.2,39.3s-15.1,33.2-33.2,39.3
		C3526.4-1555.8,3511.3-1574,3511.3-1601.2z"/>
	<path d="M1891.4-1480.3c-12.1-27.2-6-63.5,12.1-81.6c48.4-48.4,142-15.1,142,51.4C2045.5-1431.9,1918.6-1407.7,1891.4-1480.3z
		 M2003.2-1534.7c-39.3-39.3-78.6-9.1-48.4,36.3c9.1,18.1,33.2,24.2,51.4,15.1C2024.4-1495.4,2024.4-1513.5,2003.2-1534.7z"/>
	<path d="M5817.2-1752.3c0-133,6-184.4,12.1-111.8c6,69.5,6,178.3,0,241.8C5823.2-1561.9,5817.2-1619.3,5817.2-1752.3z"/>
	<path d="M2139.2-1737.2c-151.1-181.3-133-408,48.4-559.1c96.7-81.6,281.1-102.8,389.9-45.3c136,75.6,199.5,398.9,99.7,537.9
		c-66.5,93.7-199.5,157.2-341.5,157.2C2242-1646.5,2202.7-1664.6,2139.2-1737.2z M2529.1-1725.1c72.5-30.2,136-175.3,136-314.3
		c0-99.7-18.1-145.1-87.6-214.6c-99.7-96.7-175.3-108.8-305.2-42.3c-290.1,148.1-217.6,589.3,93.7,589.3
		C2429.3-1706.9,2501.9-1716,2529.1-1725.1z"/>
	<path d="M2302.4-2024.3c0-24.2,12.1-45.3,27.2-45.3c15.1,0,42.3,21.2,63.5,45.3c30.2,39.3,27.2,45.3-27.2,45.3
		C2329.6-1978.9,2302.4-1997.1,2302.4-2024.3z"/>
	<path d="M1549.9-2009.2c-9.1-229.7-15.1-262.9-33.2-166.2l-21.2,120.9l-6-126.9c-3-93.7-15.1-130-48.4-130s-45.3,39.3-51.4,160.2
		l-3,157.2l-18.1-166.2l-21.2-166.2l-24.2,142c-12.1,78.6-15.1,157.2,0,178.3c12.1,24.2,9.1,30.2-12.1,15.1
		c-21.2-12.1-36.3-81.6-36.3-157.2c0-96.7-12.1-133-42.3-133c-33.2,0-48.4,42.3-57.4,145.1l-9.1,142l-6-157.2
		c-6-142,0-160.2,63.5-172.3c145.1-30.2,262.9-36.3,262.9-12.1c0,12.1,9.1,24.2,24.2,24.2c12.1,0,21.2-54.4,21.2-117.9
		c0-105.8,30.2-190.4,54.4-151.1c3,6,0,202.5-9.1,435.2C1558.9-1731.1,1558.9-1728.1,1549.9-2009.2z"/>
	<path d="M1220.5-2175.4c0-48.4,6-66.5,15.1-36.3c6,27.2,6,69.5,0,90.7C1226.5-2102.8,1220.5-2124,1220.5-2175.4z"/>
	<path d="M4176.2-2308.4c0-18.1,12.1-39.3,30.2-48.4c18.1-9.1,21.2,3,12.1,27.2C4197.3-2275.1,4176.2-2266,4176.2-2308.4z"/>
	<path d="M3163.7-2341.6c371.7-42.3,891.5-60.4,891.5-33.2c0,48.4-139,63.5-619.5,60.4C3036.8-2317.4,2988.4-2323.5,3163.7-2341.6z"
		/>
	<path d="M4118.7-2359.7c0-33.2,9.1-42.3,18.1-18.1c9.1,21.2,6,48.4-3,57.4C4124.8-2308.4,4115.7-2326.5,4118.7-2359.7z"/>
	<path d="M5780.9-2462.5c-3-130,24.2-241.8,60.4-241.8c39.3,0,30.2,117.9-18.1,241.8l-39.3,105.8L5780.9-2462.5z"/>
	<path d="M6049.9-2734.5c36.3-27.2,27.2-33.2-45.3-18.1l-90.7,15.1l90.7-39.3c151.1-69.5,226.7-84.6,226.7-51.4
		c0,18.1,21.2,24.2,45.3,15.1c24.2-12.1,45.3-3,45.3,12.1c0,33.2-42.3,51.4-211.6,81.6C6028.8-2704.3,6013.6-2707.3,6049.9-2734.5z"
		/>
	<path d="M1549.9-3858.7c-3-48.4,12.1-84.6,27.2-84.6c36.3,0,36.3,24.2,0,105.8C1552.9-3783.2,1549.9-3786.2,1549.9-3858.7z"/>
	<path d="M1492.4-3898c0-48.4,6-66.5,15.1-36.3c6,27.2,6,69.5,0,90.7C1498.5-3825.5,1492.4-3846.7,1492.4-3898z"/>
	<path d="M1640.5-3901c0-33.2,9.1-42.3,18.1-18.1c9.1,21.2,6,48.4-3,57.4C1646.6-3849.7,1637.5-3867.8,1640.5-3901z"/>
</g>
</svg>
