<?xml version="1.0" encoding="utf-8"?>
<!-- Generator: Adobe Illustrator 24.2.3, SVG Export Plug-In . SVG Version: 6.00 Build 0)  -->
<svg version="1.1" id="Layer_1" xmlns="http://www.w3.org/2000/svg" xmlns:xlink="http://www.w3.org/1999/xlink" x="0px" y="0px"
	 viewBox="0 0 540 509" style="enable-background:new 0 0 540 509;" xml:space="preserve">
<g transform="translate(0.000000,509.000000) scale(0.100000,-0.100000)">
	<path d="M2999,4718c0-35-3-81-7-103c-6-34-12-42-42-52c-19-7-50-12-67-12c-37-1-45-23-15-40c9-5,16-13,15-18c-1-4,17-7,41-6
		c42,3,46,0,90-53c42-52,46-61,46-110c0-62,23-128,42-122c17,6,22,93,8,140c-16,56,13,106,85,147c31,18,55,37,52,44
		c-2,7-30,14-64,17c-65,5-113,35-113,71c0,9-7,30-15,45c-8,16-15,38-15,49c0,36-12,65-26,65C3004,4780,3000,4764,2999,4718z
		 M3030,4536c0-18-17-29-30-21c-8,5-7,11,1,21C3016,4554,3030,4554,3030,4536z M3143,4512c8-4-22-31-35-32c-5,0-8,11-8,25
		C3100,4529,3110,4530,3143,4512z"/>
	<path d="M2490,4739c-17-39-75-82-135-99c-64-18-58-36,15-43c34-4,71-12,83-19c56-30,108-77,129-118c37-73,58-76,58-9
		c0,55,31,110,90,160c27,23,47,45,45,49c-3,4-32,10-66,14c-76,9-104,21-118,53c-14,30-45,27-49-4c-2-12,4-33,14-47c9-14,15-26,13-27
		c-2,0-11-2-19-4c-24-7-43-8-80-6l-35,1l23,18c29,23,62,72,62,95C2520,4780,2504,4773,2490,4739z M2690,4630c0-5-7-7-15-4
		c-8,4-15,8-15,10s7,4,15,4S2690,4636,2690,4630z M2630,4578c0-17-20-47-20-31c0,6-3,18-6,27c-4,11-1,16,10,16
		C2623,4590,2630,4584,2630,4578z"/>
	<path d="M3383,4628c-6-7-13-71-16-143c-3-71-11-163-18-203c-13-81-5-107,29-86c38,24,157,256,169,329c7,42-12,67-69,96
		C3435,4643,3397,4645,3383,4628z M3502,4559c16-19,16-23-1-69c-22-58-108-217-122-225c-6-4-8,2-4,17c14,65,25,162,25,234
		c0,44,3,83,6,87C3416,4613,3483,4582,3502,4559z"/>
	<path d="M1735,4477l-47-42l40-77c22-42,66-111,99-153c32-42,65-87,73-101c15-24,50-34,50-14c0,6-29,72-64,148
		c-66,142-86,198-86,244C1800,4524,1785,4523,1735,4477z M1782,4425c3-24,22-79,42-121s35-79,32-81c-7-7-104,144-116,183
		c-11,33-11,39,6,51C1773,4477,1777,4474,1782,4425z"/>
	<path d="M2433,4067c-172-198-323-406-323-447c0-14-7-35-15-46s-12-31-9-49c3-19-9-72-33-145l-38-115l-135-54c-74-29-189-67-254-83
		c-66-16-129-34-140-40c-37-19-66-51-66-73c0-36-76-212-120-278l-42-62l39-35c22-19,102-88,179-154c76-65,190-167,252-228l112-110
		l1-94c1-52,5-94,10-94c11,0,17-34,34-193c15-143,31-214,92-427c43-152,49-165,68-150c17,14,13,43-25,162l-28,87l35,73
		c19,40,74,136,121,213l87,140l3-74c3-72,2-76-57-195c-33-66-76-149-95-183c-21-35-32-64-27-68c6-3,24,18,40,47c51,90,54,87,6-8
		c-50-100-53-114-27-114c23,0,42,35,122,217c42,97,66,140,75,137c7-3,31,4,52,14c42,22,209,148,232,175c32,39,28,9-15-110
		c-86-240-116-334-110-341c4-3,11,0,16,8c13,20,126,351,146,427c13,48,27,71,60,104c24,24,46,40,49,37c8-8-70-313-101-395
		c-36-95-38-103-27-103c28,0,81,167,133,422l22,107l139,135c110,107,139,131,144,116c13-41-34-334-74-455c-35-105-48-129-90-163
		c-23-18-41-31-41-29c0,1,34,102,75,223c41,120,74,230,74,244c0,15-6,5-14-26c-8-28-46-135-84-238c-39-102-71-192-71-200
		c0-16-50-79-57-72c-3,2,11,44,30,93c60,151,134,444,125,491c-2,9-12-23-22-73c-21-108-61-234-128-413l-51-132l-86-47
		c-47-25-121-65-163-89s-80-44-83-44s-1,9,5,20s20,50,31,87c12,38,46,132,76,211c52,136,63,182,30,130c-21-33-165-396-173-437
		c-6-28-15-37-58-56c-28-13-52-22-53-21c-2,2,31,87,72,191s73,191,71,192c-6,7-138-300-149-347c-10-43-15-49-74-80
		c-60-32-78-50-50-50c7,0,28,8,48,18c19,10,57,26,84,36c71,27,462,223,511,257c22,15,76,58,119,94c44,37,110,88,147,113
		c64,42,80,63,59,76c-5,4-5,22,0,44c12,54,48,371,44,385c-2,7-6,24-9,40c-4,15-10,27-15,27s-4-16,2-35c12-39,4-105-40-333
		c-23-121-28-134-54-153c-33-23-34-21-14,46c32,106,57,255,64,378l6,127l36-19c21-11,78-34,129-52l93-32l-6-81c-2-45-15-132-27-194
		c-21-103-21-146-1-113c13,20,51,270,51,329c0,28,3,52,6,52c19,0,114-33,114-39c0-38-35-200-56-259c-26-73-25-105,2-67
		c22,30,54,140,66,230c6,44,14,83,18,88c3,4,21,2,38-4c32-11,32-12,26-63c-7-56-70-315-79-324c-4-4-283,27-292,33c-2,1,8,51,22,111
		c29,128,40,247,26,289c-8,26-9,20-10-40c-2-110-60-351-88-362c-16-6-16-13,2-37c11-15,17-16,28-7s44,6,143-13c71-14,172-32,224-41
		s129-24,170-35c41-10,119-20,172-23c71-4,102-10,114-22c33-33,65,26,119,220c38,141,51,221,37,238c-5,7-9,19-9,27s-50,107-111,220
		s-136,267-166,343c-31,76-67,159-82,186l-27,48l20,29c34,48,70,125,106,230c19,54,52,137,72,184c74,170,100,273,88,356
		c-6,49-15,52-82,35c-20-6-90-22-156-36c-66-15-181-46-255-70c-114-37-232-65-276-65c-6,0-37,33-68,73c-85,107-296,336-374,403
		c-133,118-196,158-244,156c-16,0-28,4-28,9C2520,4162,2502,4146,2433,4067z M2464,3974c-23-79-48-146-67-174
		c-41-62-261-275-265-257c-5,22,148,235,238,332c57,61,81,96,86,121c9,51-1,52-24,2c-11-24-46-68-78-98c-54-51-56-52-29-15
		c68,94,169,224,172,221C2499,4104,2484,4045,2464,3974z M2768,3915c150-145,298-310,385-427c49-67,81-85,93-53c3,8,22,17,42,20
		c75,12,140,29,247,62c61,19,181,49,269,68l159,33l-6-52c-6-59-35-144-105-306c-27-63-64-153-81-200c-28-74-55-125-103-192
		c-10-14-10-22-1-35c32-45,75-140,123-272c30-85,91-218,146-323c52-99,94-183,94-187c0-8-36-2-313,50c-122,23-461,114-587,158
		c-156,54-118,72-367-172c-120-117-272-260-338-317l-120-102l-6,148c-7,156-25,295-65,504c-13,69-24,136-24,150c0,18-9,31-29,43
		c-16,9-66,45-111,79c-59,44-79,65-75,77c5,12,4,13-6,4c-9-9-20-8-48,7c-39,19-166,109-192,134c-9,9-20,16-26,16
		c-16,0-153,93-203,137l-44,40l29,16c17,8,84,29,149,46s188,61,273,97c146,62,250,91,349,97c25,2,38,7,36,15c-5,25,20,109,53,182
		c19,41,69,194,111,340c41,146,78,271,80,278C2563,4102,2619,4060,2768,3915z M2374,3643c-29-108-41-136-53-128c-5,2-21-12-37-33
		c-15-20-52-64-81-98s-53-64-53-68c0-22,37,3,89,61l61,66l-15-43c-8-23-15-59-15-79v-36h-100c-55,0-100,3-100,7s43,49,97,100
		c84,81,173,194,173,220c0,17-19,7-26-14c-6-21-224-244-224-229c0,3,5,24,11,46c9,31,42,72,150,183c77,78,139,148,140,155
		c0,8,2,9,5,0C2399,3747,2389,3697,2374,3643z M1468,2947c7-9-5-42-43-122c-59-120-72-155-57-155c6,0,25,35,42,78
		c80,193,72,181,103,158c17-13,15-19-32-103c-27-48-58-113-68-143s-19-57-20-59s-20,11-42,28l-40,32l29,45c15,25,45,92,65,150
		c21,57,41,104,45,104S1462,2954,1468,2947z M1597,2834c10-28-16-87-80-185c-56-85-66-95-80-84c-21,15-21,16,56,177
		c54,115,62,126,79,117C1583,2853,1594,2842,1597,2834z M1656,2799c39-24,42-15-48-157c-32-50-61-106-65-122c-7-36-13-37-42-6
		l-22,23l30,45c42,62,101,188,101,215C1610,2825,1614,2825,1656,2799z M1744,2724c0-21-138-259-155-270c-6-3-16,0-24,6
		c-12,10-11,17,9,44c13,17,49,80,80,139c43,80,62,107,74,105C1738,2746,1745,2735,1744,2724z M1815,2688l26-23l-61-94
		c-90-139-115-191-90-191c12,0,106,142,144,218c15,29,30,52,34,50s19-10,35-17c15-8,27-18,27-23s-40-70-90-144
		c-88-132-100-154-81-154c16,0,64,65,130,175c35,58,67,105,71,105s17-8,28-17c21-18,20-19-49-122c-38-57-79-130-90-163l-22-58
		l-41,37c-22,20-69,63-104,94l-63,58l44,78c25,43,60,108,78,146c18,37,37,67,41,67S1801,2700,1815,2688z M2054,2521
		c17-18,16-21-16-63c-19-24-64-92-102-151c-129-202-91-65,45,164c23,38,45,69,49,69S2045,2531,2054,2521z M2125,2470
		c31-19,34-26,46-105l12-84l-29-38c-15-21-61-78-102-127c-40-49-90-113-110-144l-37-55l-6,29c-14,64-10,86,26,130
		c20,24,68,94,107,156s79,124,89,137c11,13,19,28,19,34c0,21-42-29-129-156c-93-135-125-177-135-177c-13,0-5,68,9,80c8,7,12,16,9,21
		s7,31,22,57c39,68,167,262,172,262C2091,2490,2107,2481,2125,2470z M2195,2206c7-59-14-104-87-189c-27-31-64-81-81-110
		c-42-69-90-137-98-137c-4,0-9,25-11,56c-5,54-3,60,41,123c67,98,225,310,228,307C2188,2255,2192,2232,2195,2206z M2204,2057
		c-8-4-14-14-14-21c0-38-219-416-241-416c-4,0-10,25-14,55c-6,53-5,57,23,83c16,15,48,62,71,104s65,105,93,140s58,78,67,97l16,33
		l7-33C2217,2074,2215,2063,2204,2057z M3633,2054c33-6,38-10,33-28c-3-12-22-88-42-171c-20-82-38-156-41-164c-2-10-16-12-55-8
		c-28,4-52,8-54,9c-1,2,9,41,22,88c14,47,32,131,41,188c15,97,17,103,37,98C3586,2063,3612,2057,3633,2054z M2229,1945
		c1-48-4-58-103-206c-57-86-111-177-121-203c-20-52-30-52-39,0c-7,33,0,47,80,172c89,139,145,249,160,312l8,35l7-30
		C2225,2009,2228,1972,2229,1945z M3778,2025c5-4-69-359-77-367c-9-10-81,10-81,23c0,6,13,63,29,127s34,143,41,174l11,57l37-6
		C3758,2030,3776,2026,3778,2025z M3953,1988c44-11,88-17,99-15c17,5,19,2,14-16c-3-12-17-74-31-137c-30-133-70-229-87-212
		c-9,9-6,28,10,74c39,113,55,273,27,273c-5,0-11-18-12-40c-4-63-22-155-44-220l-19-61l-40,4c-32,3-40,8-36,21c11,35,45,218,48,256
		c6,76-16,50-34-40c-47-236-47-235-80-235c-27,0-29,2-24,28c3,15,15,79,26,142s25,136,31,162C3813,2026,3805,2025,3953,1988z
		 M2231,1633c-12-20-14-14-5,12c4,9,9,14,11,11C2240,1654,2237,1643,2231,1633z"/>
	<path d="M789,4046c-8-9,2-346,11-346c5,0,11,61,12,136l3,137l55-79c30-44,60-88,66-99c15-27,41-31,48-7c7,22,86,91,142,124l37,22
		l-6-33c-8-36-67-140-93-161c-13-12-6-23,58-87l72-73h-44c-25,1-65,5-90,10c-54,10-77-6-110-79c-12-25-31-61-43-80l-20-34l-10,24
		c-5,13-14,53-21,89l-12,65l-80,6c-97,7-146,18-139,29c3,5,39,27,80,50c72,40,82,49,69,63c-8,8-166-72-177-90c-4-7-17-13-27-13
		c-41,0-17-43,25-46c11-1,66-8,121-15l102-13l15-79c20-99,56-147,73-95c3,12,28,59,55,104l49,83l120-6c98-5,120-4,120,8
		c0,7-34,48-77,91l-76,77l31,48c61,95,82,183,44,183c-27,0-81-31-145-83c-32-26-61-47-65-47c-9,1-115,146-136,188
		C811,4048,800,4056,789,4046z"/>
	<path d="M663,3285c-44-86-42-88,110-114c72-13,147-27,165-32c23-5,40-4,53,4c25,16,24,37-2,37c-12,0-47,16-79,35s-62,35-66,35
		c-5,0-40,18-78,40c-37,22-71,40-75,40C688,3330,675,3309,663,3285z M800,3235c47-24,79-44,71-44c-7-1-53,6-102,15
		c-70,13-89,20-89,33c0,16,18,42,30,40C713,3279,753,3259,800,3235z"/>
	<path d="M4905,3064c-67-39-180-64-288-64c-95,0-113-5-98-28c8-14,353-39,393-29c23,6,27,15,37,69c6,34,7,65,3,69
		C4948,3084,4927,3077,4905,3064z M4924,3023c-4-16-9-31-13-35c-3-3-39-4-79-1s-70,8-67,11c7,7,135,50,153,51
		C4927,3050,4928,3042,4924,3023z"/>
	<path d="M2962,2095c0-16,2-22,5-12c2,9,2,23,0,30C2964,2119,2962,2112,2962,2095z"/>
	<path d="M4613,1987c-9-15,37-48,108-77c40-16,84-44,121-78c32-30,64-52,71-49c9,3,17,30,20,68c12,107,11,109-25,109
		c-18,0-71,6-118,14C4656,1996,4621,1999,4613,1987z M4840,1936l65-12l-3-40c-2-21-5-40-6-42c-2-1-20,14-40,33c-21,20-54,44-75,55
		C4739,1952,4750,1953,4840,1936z"/>
	<path d="M1175,1706c-11-9-56-30-100-47c-43-17-110-46-147-65s-76-34-87-34c-33,0-44-24-28-62c18-42,61-88,82-88c28,0,76,30,139,88
		c35,32,84,74,109,95c58,47,81,87,64,111C1196,1719,1193,1719,1175,1706z M1020,1550c-100-93-117-101-142-70c-10,12-18,25-18,29
		c0,10,211,115,240,120C1102,1630,1066,1594,1020,1550z"/>
	<path d="M3874,1276c-8-20,54-96,78-96c10,0,18,3,18,6c0,22-65,104-82,104C3883,1290,3877,1283,3874,1276z"/>
	<path d="M4447,1283c-12-12-7-22,14-28c11-4,55-42,97-86c43-43,83-79,89-79c17,0,83,59,83,74c0,22-32,41-138,84
		C4492,1289,4460,1297,4447,1283z M4697,1166c2-2-9-14-26-25l-30-22l-46,42c-25,23-45,45-45,50C4550,1218,4687,1176,4697,1166z"/>
	<path d="M4010,1074c0-11,62-84,71-84c17,0,9,19-22,55C4031,1077,4010,1089,4010,1074z"/>
	<path d="M1478,957c-136-91-248-185-248-206c0-27,30-61,53-61c36,0,95,47,144,113c24,34,78,93,119,130c73,68,90,97,57,97
		C1593,1030,1537,997,1478,957z M1400,840c-17-31-95-110-109-110c-24,0-5,28,54,79c33,28,61,51,63,51C1409,860,1406,851,1400,840z"
		/>
	<path d="M3575,1020c-8-13,10-71,46-140c20-40,30-77,35-135c10-120,13-124,68-114c52,10,106,35,106,49s-41,79-115,180
		c-34,47-72,104-85,128C3607,1029,3588,1040,3575,1020z M3739,757c22-30,41-59,41-65c0-10-69-36-76-29c-4,3-24,128-24,145
		C3680,828,3693,816,3739,757z"/>
	<path d="M4150,840c0-5,4-10,9-10c6,0,21-18,34-41c14-22,27-37,30-32c8,13-28,70-52,83C4157,847,4150,847,4150,840z"/>
	<path d="M2286,799c-16-19-16-27-6-64c15-52,11-73-42-243c-33-105-39-135-29-145c7-7,39-12,82-11c58,0,73,4,91,22l22,21l-27,93
		c-15,51-31,140-37,198C2323,832,2321,839,2286,799z M2349,379c-16-10-109-13-109-3c0,4,14,51,32,106l31,99l31-96
		C2359,403,2362,387,2349,379z"/>
	<path d="M4310,625c0-16,39-75,50-75c5,0,10,4,10,8C4370,570,4311,636,4310,625z"/>
	<path d="M4445,423c3-10,9-30,12-46c3-15,10-30,14-33c14-9,10,35-6,66C4448,442,4434,451,4445,423z"/>
	<path d="M4490,155c0-51,3-65,15-65s15,14,15,65s-3,65-15,65S4490,206,4490,155z"/>
</g>
</svg>
