<svg xmlns="http://www.w3.org/2000/svg" data-name="Layer 1" viewBox="0 0 240 240"><path d="M119.82-.35a120 120 0 1 0 120 120 120 120 0 0 0-120-120Zm-116 120A116 116 0 0 1 118 3.68v56.7l.09.17a5 5 0 0 0 1.15 1.37c-.75-1.7.4-4.34 2.76-7.15V3.68a116 116 0 0 1 86.92 190.26L122 120.76v-9.65a41.65 41.65 0 0 0-4 6.18v1.46l-85.32 77.41 2.4 2.65L118 123.58v112.05a116 116 0 0 1-114.18-116Zm198 82A115.19 115.19 0 0 1 122 235.63V125.87l84.36 71c-1.46 1.66-2.96 3.25-4.52 4.81Z"/><path d="M107.32 91.76c8.85 7.59 11.28 14.29 11.8 16.07 0-1.12 1.35-4.76 11.78-15.8 8.7-9.21 24.67-17.64 18.17-29.28-8.5-15.19-30.71 1.91-28.53 6.87a3.42 3.42 0 0 1-.75-.9c-7.59-14.91-19.93-15.86-27.39-8.41-8.83 8.83 1.6 20.06 14.92 31.45Z"/></svg>