<svg id="Layer_1" data-name="Layer 1" xmlns="http://www.w3.org/2000/svg" viewBox="0 0 240 240"><path d="M119.82-.35a120,120,0,1,0,120,120A120,120,0,0,0,119.82-.35Zm-116,120A116,116,0,0,1,118,3.68v56.7l.09.17a5,5,0,0,0,1.15,1.37c-.75-1.7.4-4.34,2.76-7.15V3.68a116,116,0,0,1,86.92,190.26L122,120.76v-9.65a41.65,41.65,0,0,0-4,6.18v1.46L32.68,196.16l2.4,2.65L118,123.58V235.63a116,116,0,0,1-114.18-116Zm198,82A115.19,115.19,0,0,1,122,235.63V125.87l84.36,71C204.9,198.53,203.4,200.12,201.84,201.68Z"/><path d="M107.32,91.76c8.85,7.59,11.28,14.29,11.8,16.07,0-1.12,1.35-4.76,11.78-15.8,8.7-9.21,24.67-17.64,18.17-29.28-8.5-15.19-30.71,1.91-28.53,6.87a3.42,3.42,0,0,1-.75-.9C112.2,53.81,99.86,52.86,92.4,60.31,83.57,69.14,94,80.37,107.32,91.76Z"/></svg>