<svg id="Layer_1" data-name="Layer 1" xmlns="http://www.w3.org/2000/svg" viewBox="0 0 79.86 14"><path d="M19.72,3.94H18.44V10.7h1.12v1.82H15.38V10.7h.92v-4h-.07L13.5,11.67h-.9L9.66,6.54H9.59V10.7h1v1.82H6.47V10.7H7.59V3.94H6.31V2.12H9.38l3.7,6.45h.06l3.48-6.45h3.1Z"/><path d="M30.2,12.52H27.1v-1.1a2.48,2.48,0,0,1-2.32,1.24,2.76,2.76,0,0,1-1.78-.6,2.3,2.3,0,0,1-.75-1.89V6.86h-1V5.3h3V9.37a2.22,2.22,0,0,0,.31,1.33,1.1,1.1,0,0,0,.93.4,1.41,1.41,0,0,0,1.14-.48,1.85,1.85,0,0,0,.41-1.24V6.86H25.93V5.3h3.23V11h1Z"/><path d="M39.66,6.86h-.74l-2.58,5.66H34.86L32.14,6.86h-.77V5.3h3.68V6.86h-.69l1.41,3h.09l1.08-3h-.58V5.3h3.3Z"/><path d="M45.42,12.52h-4V11h1V6.87h-1V5.3h3.11V11h1ZM42.31,4V1.88h2.07V4Z"/><path d="M48.4,5.29a2.13,2.13,0,0,1,1-.73,3.68,3.68,0,0,1,1.37-.24,3.17,3.17,0,0,1,1.6.34,2.12,2.12,0,0,1,.85.83,1.93,1.93,0,0,1,.26.93H52.9a1.43,1.43,0,0,0-.21-.68A1.82,1.82,0,0,0,52,5.09a2.47,2.47,0,0,0-1.29-.28,2.57,2.57,0,0,0-1.48.41,1.34,1.34,0,0,0-.63,1.21,1.29,1.29,0,0,0,.15.64,1.44,1.44,0,0,0,.43.46,2.87,2.87,0,0,0,.68.35c.27.1.58.19.93.29a12,12,0,0,1,1.39.42,2.6,2.6,0,0,1,1,.63,1.61,1.61,0,0,1,.39,1.16,2,2,0,0,1-.41,1.28,2.45,2.45,0,0,1-1.08.75,4.18,4.18,0,0,1-1.44.24A3.65,3.65,0,0,1,49,12.31a2.33,2.33,0,0,1-.92-.86,2.12,2.12,0,0,1-.28-1h.56a1.45,1.45,0,0,0,.22.72,1.86,1.86,0,0,0,.73.68,2.91,2.91,0,0,0,1.41.28A3.57,3.57,0,0,0,51.84,12a2.07,2.07,0,0,0,.87-.57,1.43,1.43,0,0,0,.33-1,1.2,1.2,0,0,0-.35-.91A2.46,2.46,0,0,0,51.8,9a11.76,11.76,0,0,0-1.14-.33,8.56,8.56,0,0,1-1.38-.46,2.3,2.3,0,0,1-.91-.68,1.75,1.75,0,0,1-.32-1.08A2,2,0,0,1,48.4,5.29Z"/><path d="M57.3,1.31h.55V6.07h0a2.57,2.57,0,0,1,.46-.81,2.75,2.75,0,0,1,.87-.68,3,3,0,0,1,1.35-.27,2.8,2.8,0,0,1,2,.73,2.76,2.76,0,0,1,.79,2.13v5.35h-.56V7.27A2.83,2.83,0,0,0,62.5,6a2.05,2.05,0,0,0-.77-.88,2.33,2.33,0,0,0-1.24-.32A2.54,2.54,0,0,0,59,5.23a2.46,2.46,0,0,0-.88,1.06,3.23,3.23,0,0,0-.3,1.38v4.85H57.3Z"/><path d="M72,4.72a3,3,0,0,1,1.19,1.2,3.84,3.84,0,0,1,.45,1.94V9.14a3.91,3.91,0,0,1-.45,1.95A2.91,2.91,0,0,1,72,12.26a3.46,3.46,0,0,1-1.65.39,3.53,3.53,0,0,1-1.66-.39,2.85,2.85,0,0,1-1.18-1.18,4.06,4.06,0,0,1-.43-1.94V7.86a4,4,0,0,1,.44-1.95,2.86,2.86,0,0,1,1.17-1.19,3.42,3.42,0,0,1,1.66-.4A3.36,3.36,0,0,1,72,4.72Zm-3,.45a2.56,2.56,0,0,0-1,1A3.75,3.75,0,0,0,67.61,8V9.06A3.67,3.67,0,0,0,68,10.77a2.55,2.55,0,0,0,1,1,2.82,2.82,0,0,0,1.4.34,2.78,2.78,0,0,0,1.39-.34,2.42,2.42,0,0,0,1-1A3.82,3.82,0,0,0,73,9.06V8a3.88,3.88,0,0,0-.35-1.72,2.49,2.49,0,0,0-1-1.05,2.86,2.86,0,0,0-2.76,0Z"/></svg>