<svg id="Layer_1" data-name="Layer 1" xmlns="http://www.w3.org/2000/svg" viewBox="0 0 240 240"><path d="M119.82-.35a120,120,0,1,0,120,120A120,120,0,0,0,119.82-.35ZM115,229.55a109.27,109.27,0,0,1-73-32.11c-.36-.36-.7-.72-1-1.08l74-63.68Zm82.6-32.11A109.17,109.17,0,0,1,125,229.53V134.38l75.47,60.07C199.53,195.46,198.58,196.46,197.6,197.44ZM125,121.6V110.82c-5,6.36-5.81,9.08-5.84,10.18a36.17,36.17,0,0,0-4.16-8.79v7.28l-80.66,69.4A110,110,0,0,1,115,9.76V54a50,50,0,0,1,5.16,8.18,5.21,5.21,0,0,0,1.13,1.36c-.83-1.91.73-5,3.71-8.17V9.78a110,110,0,0,1,81.94,177.05Z"/><path d="M121,72.65a3.3,3.3,0,0,1-.75-.9c-7.59-14.91-19.92-15.86-27.38-8.4C84,72.18,94.45,83.41,107.73,94.8c8.85,7.58,11.29,14.29,11.81,16.07,0-1.12,1.35-4.76,11.78-15.8C140,85.86,156,77.43,149.48,65.79,141,50.59,118.78,67.69,121,72.65Z"/><path d="M173.58,129.79s0-.19-.14-.53C173.43,129.67,173.58,129.79,173.58,129.79Z"/></svg>