<svg id="Layer_1" data-name="Layer 1" xmlns="http://www.w3.org/2000/svg" viewBox="0 0 24 24"><path d="M18.66,16.32a4.62,4.62,0,0,0-.95-.47,4.36,4.36,0,0,0-1.37-.23l-.5,0,.14-.18A5.61,5.61,0,0,0,17,13.24a5.51,5.51,0,0,0-4.65-6.71,7.49,7.49,0,0,0-1.42,0,5.51,5.51,0,0,0-4.7,4.68,6.53,6.53,0,0,0,0,1.53,5.5,5.5,0,0,0,7.8,4.19,5,5,0,0,1,2.31-.5,3.57,3.57,0,0,1,1.6.43c.34.17.41.19.58.1A.4.4,0,0,0,18.66,16.32ZM11.3,7.91a1.18,1.18,0,0,1,.72,0,1.23,1.23,0,0,1,.86,1,1.19,1.19,0,0,1-2.35.34A1.22,1.22,0,0,1,11.3,7.91ZM7.79,10.86a1.21,1.21,0,0,1,1.47-1,1.2,1.2,0,0,1,.23,2.22A1.19,1.19,0,0,1,7.79,10.86Zm3.23,4a1.18,1.18,0,0,1-1.82.24,1.19,1.19,0,0,1,.61-2,1.33,1.33,0,0,1,.59,0,1.22,1.22,0,0,1,.69.63.82.82,0,0,1,.1.42A1,1,0,0,1,11,14.87Zm1-2.54a.48.48,0,0,1-.78-.23.47.47,0,0,1,.45-.59.84.84,0,0,1,.19,0,.47.47,0,0,1,.14.79Zm2.19,2.78a1.17,1.17,0,0,1-1.63,0,1.19,1.19,0,0,1,1-2,1.21,1.21,0,0,1,1,1.17A1.14,1.14,0,0,1,14.21,15.11Zm1.29-3.54a1.68,1.68,0,0,1-.44.48,1.19,1.19,0,0,1-1.68-.49,1.17,1.17,0,0,1,.22-1.37,1.13,1.13,0,0,1,1.15-.31A1.19,1.19,0,0,1,15.5,11.57Z"/><rect x="3.09" y="4.27" width="1.81" height="1.59" rx="0.42"/><rect x="3.09" y="18.11" width="1.81" height="1.59" rx="0.42"/><rect x="3.09" y="13.57" width="1.81" height="1.59" rx="0.42"/><rect x="3.09" y="9.04" width="1.81" height="1.59" rx="0.42"/><rect x="19.1" y="18.11" width="1.81" height="1.59" rx="0.42"/><rect x="19.1" y="4.27" width="1.81" height="1.59" rx="0.42"/><rect x="19.1" y="13.57" width="1.81" height="1.59" rx="0.42"/><rect x="19.1" y="9.04" width="1.81" height="1.59" rx="0.42"/></svg>