<?xml version="1.0" encoding="utf-8"?>
<svg width="48px" height="48px" viewBox="0 0 48 48" version="1.1" xmlns:xlink="http://www.w3.org/1999/xlink" xmlns="http://www.w3.org/2000/svg">
  <defs>
    <rect width="48" height="48" id="artboard_1" />
    <clipPath id="clip_1">
      <use xlink:href="#artboard_1" clip-rule="evenodd" />
    </clipPath>
  </defs>
  <g id="Poster--Placeholder--Movie" clip-path="url(#clip_1)">
    <path d="M9.98423 9.10367L33.8529 4.03023C34.8791 3.81212 35.832 3.98874 36.7119 4.56011C37.5917 5.13148 38.1407 5.93024 38.3588 6.9564L39.1491 10.6744L13.947 16.0312L37.1348 13.5941C37.6838 13.5364 38.1728 13.6813 38.6018 14.0286C39.0308 14.376 39.2741 14.8242 39.3318 15.3732L41.5271 36.2602C41.5848 36.8091 41.44 37.2981 41.0926 37.7271C40.7452 38.1561 40.297 38.3995 39.748 38.4572L11.8994 41.3842C11.3504 41.4419 10.8614 41.297 10.4324 40.9496C10.0035 40.6022 9.76011 40.154 9.70241 39.6051L7.5071 18.7181C7.48094 18.4692 7.50082 18.2241 7.56674 17.9826C7.63266 17.7412 7.74013 17.5199 7.88915 17.3189L7.84835 17.3276L7.05807 13.6096C6.83995 12.5834 7.01658 11.6304 7.58795 10.7506C8.15932 9.87076 8.95808 9.32178 9.98423 9.10367L9.98423 9.10367ZM34.7266 9.77465L36.8188 9.32995L36.4027 7.37267C36.3476 7.11338 36.245 6.87451 36.0948 6.65604C35.9447 6.43758 35.7585 6.25616 35.5361 6.11179C35.4873 6.08006 35.4371 6.05053 35.3857 6.02318C35.3343 5.99584 35.2817 5.97079 35.2281 5.94804L34.7266 9.77465L34.7266 9.77465ZM31.0732 10.5512L31.4778 6.37583L28.4309 7.02348L27.8796 11.23L31.0732 10.5512L31.0732 10.5512ZM24.2261 12.0066L24.6308 7.83121L21.5838 8.47886L21.0325 12.6854L24.2261 12.0066L24.2261 12.0066ZM17.3791 13.462L17.7838 9.28659L14.7368 9.93424L14.1855 14.1408L17.3791 13.462L17.3791 13.462ZM10.5321 14.9174L10.9367 10.742L10.5543 10.8233C10.295 10.8784 10.0561 10.981 9.83766 11.1312C9.61919 11.2813 9.43778 11.4675 9.2934 11.6898C9.14902 11.9122 9.05268 12.1536 9.00438 12.4143C8.95607 12.6749 8.95947 12.9349 9.01459 13.1942L9.43062 15.1515L10.5321 14.9174L10.5321 14.9174ZM14.4855 19.9967L10.6997 20.3946L11.8978 17.2521L15.8629 16.8354L14.4855 19.9967L14.4855 19.9967ZM17.8248 19.6457L21.6106 19.2478L22.988 16.0865L19.0228 16.5033L17.8248 19.6457L17.8248 19.6457ZM28.7358 18.4989L24.9499 18.8968L26.148 15.7544L30.1131 15.3376L28.7358 18.4989L28.7358 18.4989ZM32.075 18.1479L35.8608 17.75L37.2382 14.5888L33.2731 15.0055L32.075 18.1479L32.075 18.1479ZM35.7729 19.7703L11.9024 22.2792C11.3534 22.3369 10.9052 22.5802 10.5578 23.0092C10.2105 23.4382 10.0656 23.9272 10.1233 24.4762L11.4824 37.407C11.5401 37.9559 11.7834 38.4041 12.2124 38.7515C12.6414 39.0989 13.1304 39.2438 13.6794 39.1861L37.5499 36.6772C38.0989 36.6195 38.5471 36.3761 38.8945 35.9471C39.2419 35.5181 39.3867 35.0292 39.329 34.4802L37.9699 21.5494C37.9122 21.0004 37.6689 20.5522 37.2399 20.2048C36.8109 19.8574 36.3219 19.7126 35.7729 19.7703L35.7729 19.7703Z" id="Vector" fill="#D3D3D3" fill-rule="evenodd" stroke="none" artboard="45fafeea-c346-4208-9cfd-3cdaf67c29f3" />
  </g>
</svg>