<?xml version="1.0" encoding="utf-8"?>
<svg width="48px" height="48px" viewBox="0 0 48 48" version="1.1" xmlns:xlink="http://www.w3.org/1999/xlink" xmlns="http://www.w3.org/2000/svg">
  <defs>
    <rect width="48" height="48" id="artboard_1" />
    <clipPath id="clip_1">
      <use xlink:href="#artboard_1" clip-rule="evenodd" />
    </clipPath>
  </defs>
  <g id="Poster--Placeholder--Series" clip-path="url(#clip_1)">
    <path d="M37.434 7.5211L9.44908 8.49835Q8.62157 8.52725 8.05686 9.13282Q7.49216 9.73839 7.52106 10.5659L8.49831 38.5508C8.51758 39.1025 8.72907 39.5666 9.13278 39.9431Q9.73835 40.5078 10.5659 40.4789L38.5508 39.5016C39.1025 39.4823 39.5666 39.2709 39.943 38.8671Q40.5077 38.2616 40.4788 37.4341L39.5016 9.44911C39.4823 8.89744 39.2708 8.43337 38.8671 8.0569Q38.2615 7.4922 37.434 7.5211ZM18.5343 10.7825L28.5302 10.4335Q28.6284 10.43 28.7264 10.4362Q28.8244 10.4425 28.9213 10.4582Q29.0183 10.474 29.1132 10.4992Q29.2081 10.5244 29.3001 10.5588Q29.3921 10.5932 29.4802 10.6365Q29.5684 10.6797 29.6519 10.7314Q29.7354 10.7831 29.8135 10.8427Q29.8915 10.9023 29.9633 10.9693Q30.0351 11.0362 30.1001 11.1099Q30.165 11.1836 30.2223 11.2633Q30.2797 11.343 30.329 11.428Q30.3783 11.5129 30.419 11.6023Q30.4597 11.6916 30.4915 11.7846Q30.5233 11.8775 30.5458 11.9731Q30.5683 12.0687 30.5813 12.166Q30.5944 12.2633 30.5978 12.3615L30.905 21.1582Q30.9084 21.2563 30.9022 21.3543Q30.896 21.4523 30.8802 21.5493Q30.8644 21.6462 30.8392 21.7411Q30.814 21.836 30.7796 21.928Q30.7452 22.02 30.702 22.1082Q30.6587 22.1963 30.607 22.2798Q30.5554 22.3633 30.4958 22.4414Q30.4361 22.5194 30.3692 22.5912Q30.3022 22.6631 30.2285 22.728Q30.1548 22.7929 30.0751 22.8503Q29.9954 22.9076 29.9105 22.9569Q29.8255 23.0062 29.7362 23.0469Q29.6468 23.0877 29.5539 23.1194Q29.461 23.1512 29.3654 23.1737Q29.2698 23.1962 29.1724 23.2093Q29.0751 23.2223 28.977 23.2257L18.981 23.5748Q18.8829 23.5782 18.7849 23.572Q18.6869 23.5658 18.59 23.55Q18.493 23.5342 18.3981 23.509Q18.3032 23.4838 18.2112 23.4494Q18.1192 23.415 18.0311 23.3718Q17.9429 23.3285 17.8594 23.2769Q17.7759 23.2252 17.6978 23.1656Q17.6198 23.106 17.548 23.039Q17.4761 22.972 17.4112 22.8983Q17.3463 22.8246 17.2889 22.7449Q17.2316 22.6652 17.1823 22.5803Q17.133 22.4953 17.0923 22.406Q17.0515 22.3166 17.0198 22.2237Q16.988 22.1308 16.9655 22.0352Q16.943 21.9396 16.93 21.8422Q16.9169 21.7449 16.9135 21.6468L16.6063 12.8501Q16.6029 12.7519 16.6091 12.6539Q16.6153 12.5559 16.6311 12.459Q16.6469 12.3621 16.6721 12.2671Q16.6973 12.1722 16.7317 12.0802Q16.7661 11.9883 16.8093 11.9001Q16.8526 11.8119 16.9042 11.7284Q16.9559 11.6449 17.0155 11.5669Q17.0751 11.4888 17.1421 11.417Q17.2091 11.3452 17.2828 11.2803Q17.3565 11.2153 17.4362 11.158Q17.5159 11.1006 17.6008 11.0513Q17.6858 11.002 17.7751 10.9613Q17.8645 10.9206 17.9574 10.8888Q18.0503 10.857 18.1459 10.8345Q18.2415 10.812 18.3389 10.799Q18.4362 10.786 18.5343 10.7825ZM13.5394 10.9572L10.5392 11.062Q10.1257 11.0764 9.84345 11.379Q9.56124 11.6817 9.57568 12.0952L9.68045 15.0954C9.69008 15.3711 9.79577 15.603 9.99753 15.7912Q10.3002 16.0734 10.7137 16.0589L13.7139 15.9542Q14.1274 15.9397 14.4096 15.6371C14.5978 15.4353 14.687 15.1966 14.6774 14.9209L14.5726 11.9207Q14.5582 11.5072 14.2556 11.225C14.0538 11.0368 13.8151 10.9476 13.5394 10.9572ZM36.5254 10.1545L33.5252 10.2593C33.2495 10.2689 33.0176 10.3746 32.8294 10.5764C32.6413 10.7781 32.552 11.0168 32.5617 11.2925L32.6665 14.2927C32.6761 14.5684 32.7818 14.8003 32.9835 14.9885C33.1853 15.1766 33.424 15.2659 33.6997 15.2562L36.6999 15.1515Q37.1134 15.137 37.3956 14.8344C37.5838 14.6326 37.673 14.3939 37.6634 14.1182L37.5586 11.118Q37.5442 10.7045 37.2416 10.4223Q36.9389 10.1401 36.5254 10.1545ZM10.7835 18.0577L13.7837 17.9529Q14.1972 17.9385 14.4999 18.2207C14.7016 18.4088 14.8073 18.6408 14.8169 18.9165L14.9217 21.9166C14.9313 22.1923 14.8421 22.4311 14.6539 22.6328C14.4658 22.8346 14.2339 22.9403 13.9582 22.9499L10.958 23.0547C10.6823 23.0643 10.4436 22.975 10.2418 22.7869C10.0401 22.5987 9.93437 22.3668 9.92475 22.0911L9.81998 19.091C9.81035 18.8153 9.89961 18.5765 10.0877 18.3748Q10.37 18.0721 10.7835 18.0577ZM33.7695 17.255L36.7697 17.1502Q37.1832 17.1358 37.4859 17.418C37.6876 17.6062 37.7933 17.8381 37.8029 18.1138L37.9077 21.1139C37.9173 21.3896 37.8281 21.6284 37.6399 21.8301C37.4518 22.0319 37.2199 22.1376 36.9442 22.1472L33.944 22.252C33.6683 22.2616 33.4296 22.1723 33.2278 21.9842C33.0261 21.7961 32.9204 21.5641 32.9107 21.2884L32.806 18.2883C32.7963 18.0126 32.8856 17.7738 33.0737 17.5721C33.2619 17.3703 33.4938 17.2646 33.7695 17.255ZM14.028 24.9487L11.0278 25.0534Q10.6143 25.0679 10.332 25.3705C10.1439 25.5723 10.0546 25.811 10.0643 26.0867L10.169 29.0869Q10.1835 29.5004 10.4861 29.7826Q10.7888 30.0648 11.2023 30.0504L14.2025 29.9456Q14.616 29.9312 14.8982 29.6286Q15.1804 29.3259 15.166 28.9124L15.0612 25.9122C15.0516 25.6365 14.9459 25.4046 14.7442 25.2164C14.5424 25.0283 14.3037 24.939 14.028 24.9487ZM37.014 24.146L34.0138 24.2508C33.7381 24.2604 33.5062 24.3661 33.318 24.5678C33.1299 24.7696 33.0406 25.0083 33.0503 25.284L33.155 28.2842C33.1647 28.5599 33.2704 28.7918 33.4721 28.9799C33.6739 29.1681 33.9126 29.2573 34.1883 29.2477L37.1885 29.1429Q37.602 29.1285 37.8842 28.8259Q38.1664 28.5232 38.152 28.1097L38.0472 25.1095C38.0376 24.8338 37.9319 24.6019 37.7301 24.4138Q37.4275 24.1315 37.014 24.146ZM29.0258 24.6248L19.0299 24.9738Q18.9318 24.9773 18.8344 24.9903Q18.7371 25.0033 18.6415 25.0258Q18.5459 25.0483 18.453 25.0801Q18.3601 25.1119 18.2707 25.1526Q18.1813 25.1933 18.0964 25.2426Q18.0114 25.2919 17.9317 25.3493Q17.852 25.4067 17.7784 25.4716Q17.7047 25.5365 17.6377 25.6083Q17.5707 25.6801 17.5111 25.7582Q17.4515 25.8362 17.3998 25.9197Q17.3481 26.0032 17.3049 26.0914Q17.2616 26.1796 17.2273 26.2715Q17.1929 26.3635 17.1677 26.4584Q17.1424 26.5534 17.1267 26.6503Q17.1109 26.7472 17.1047 26.8452Q17.0985 26.9432 17.1019 27.0414L17.4091 35.8381Q17.4125 35.9362 17.4255 36.0335Q17.4386 36.1309 17.4611 36.2265Q17.4836 36.3221 17.5153 36.415Q17.5471 36.5079 17.5878 36.5973Q17.6286 36.6866 17.6778 36.7716Q17.7271 36.8565 17.7845 36.9362Q17.8419 37.0159 17.9068 37.0896Q17.9717 37.1633 18.0435 37.2303Q18.1154 37.2973 18.1934 37.3569Q18.2714 37.4165 18.3549 37.4682Q18.4385 37.5198 18.5266 37.5631Q18.6148 37.6063 18.7068 37.6407Q18.7988 37.6751 18.8937 37.7003Q18.9886 37.7255 19.0855 37.7413Q19.1825 37.7571 19.2805 37.7633Q19.3785 37.7695 19.4766 37.7661L29.4725 37.417Q29.5707 37.4136 29.668 37.4006Q29.7653 37.3875 29.8609 37.365Q29.9565 37.3425 30.0494 37.3107Q30.1424 37.279 30.2317 37.2382Q30.3211 37.1975 30.406 37.1482Q30.491 37.0989 30.5707 37.0416Q30.6504 36.9842 30.7241 36.9193Q30.7978 36.8544 30.8647 36.7826Q30.9317 36.7107 30.9913 36.6327Q31.0509 36.5546 31.1026 36.4711Q31.1543 36.3876 31.1975 36.2995Q31.2408 36.2113 31.2752 36.1193Q31.3096 36.0273 31.3348 35.9324Q31.36 35.8375 31.3758 35.7406Q31.3916 35.6436 31.3978 35.5456Q31.404 35.4476 31.4005 35.3495L31.0934 26.5528Q31.0899 26.4546 31.0769 26.3573Q31.0639 26.26 31.0414 26.1644Q31.0189 26.0688 30.9871 25.9759Q30.9553 25.8829 30.9146 25.7936Q30.8739 25.7042 30.8246 25.6193Q30.7753 25.5343 30.7179 25.4546Q30.6605 25.3749 30.5956 25.3012Q30.5307 25.2275 30.4589 25.1606Q30.3871 25.0936 30.309 25.034Q30.231 24.9744 30.1475 24.9227Q30.064 24.871 29.9758 24.8278Q29.8876 24.7845 29.7956 24.7501Q29.7037 24.7157 29.6087 24.6905Q29.5138 24.6653 29.4169 24.6495Q29.32 24.6338 29.222 24.6276Q29.124 24.6213 29.0258 24.6248ZM11.2721 32.0492L14.2723 31.9444Q14.6858 31.93 14.9885 32.2122Q15.2911 32.4944 15.3055 32.9079L15.4103 35.9081Q15.4247 36.3217 15.1425 36.6243C14.9544 36.826 14.7225 36.9317 14.4468 36.9414L11.4466 37.0461C11.1709 37.0558 10.9322 36.9665 10.7304 36.7784C10.5287 36.5902 10.423 36.3583 10.4133 36.0826L10.3086 33.0824Q10.2941 32.6689 10.5763 32.3662Q10.8586 32.0636 11.2721 32.0492ZM34.2581 31.2465L37.2583 31.1417Q37.6718 31.1273 37.9744 31.4095Q38.2771 31.6917 38.2915 32.1053L38.3963 35.1054Q38.4107 35.519 38.1285 35.8216Q37.8463 36.1242 37.4328 36.1387L34.4326 36.2434C34.1569 36.2531 33.9182 36.1638 33.7164 35.9757C33.5147 35.7875 33.409 35.5556 33.3993 35.2799L33.2946 32.2798C33.2849 32.0041 33.3742 31.7653 33.5623 31.5636C33.7505 31.3618 33.9824 31.2561 34.2581 31.2465Z" id="Rectangle-2-Copy-Subtract-Subtract-Subtract" fill="#D3D3D3" fill-rule="evenodd" stroke="none" artboard="d7eeb76c-8134-43a9-8ca7-9cbc918aa417" />
  </g>
</svg>