<svg xmlns="http://www.w3.org/2000/svg" xml:space="preserve" style="enable-background:new 0 0 24 24" viewBox="0 0 24 24"><path d="M12 1.9C6.3 1.9 1.6 6.5 1.6 12.2c0 4.6 3 8.4 7 9.8.5.1.7-.3.7-.5v-1.8c-2.9.6-3.5-1.4-3.5-1.4-.4-1.2-1.1-1.5-1.1-1.5-1-.6.1-.6.1-.6 1 .1 1.6 1.1 1.6 1.1 1 1.6 2.4 1.1 3 .9.1-.7.4-1.1.6-1.4-2.3-.3-4.7-1.1-4.7-5.1 0-1.1.4-2 1.1-2.8-.1-.3-.5-1.3.1-2.7 0 0 .9-.3 2.9 1.1.8-.3 1.7-.4 2.6-.4.9 0 1.8.1 2.6.3 2-1.3 2.9-1.1 2.9-1.1.6 1.4.2 2.5.1 2.7.6.7 1.1 1.7 1.1 2.8 0 4-2.4 4.8-4.7 5.1.4.3.7 1 .7 1.9v2.9c0 .3.2.6.7.5 4.1-1.4 7-5.3 7-9.8C22.3 6.5 17.7 1.9 12 1.9z" style="fill:#000"/></svg>